<svg width="609" height="181" viewBox="0 0 609 181" fill="none" xmlns="http://www.w3.org/2000/svg">
<path d="M124.722 65.6836H78.1456C79.3231 76.8043 84.8181 82.8226 93.8455 82.8226C100.125 82.8226 104.705 80.0751 107.583 74.711H124.068C120.274 87.5325 108.63 95.5133 94.1071 95.5133C75.1365 95.5133 61.7916 81.6451 61.7916 62.0203C61.7916 42.003 74.3515 28.3964 92.7988 28.3964C112.293 28.3964 124.329 42.3955 124.722 65.6836ZM78.5381 55.217H108.237C107.06 45.9279 101.826 40.6946 93.3222 40.6946C85.2106 40.6946 79.8465 45.9279 78.5381 55.217Z" fill="#009C4C"/>
<path d="M127.315 28.3964H143.276V93.6817C143.276 104.41 143.145 105.064 141.706 107.55C139.22 111.867 135.295 113.437 127.184 113.437H116.717V100.747C126.399 100.485 127.445 99.4383 127.315 89.1025V28.3964ZM127.315 4.45415H143.276V18.9765H127.315V4.45415Z" fill="#009C4C"/>
<path d="M208.896 62.6744H162.32C163.497 73.7952 168.992 79.8135 178.019 79.8135C184.299 79.8135 188.879 77.066 191.757 71.7019H208.242C204.448 84.5234 192.803 92.5042 178.281 92.5042C159.31 92.5042 145.966 78.636 145.966 59.0111C145.966 38.9938 158.525 25.3873 176.973 25.3873C196.467 25.3873 208.503 39.3863 208.896 62.6744ZM162.712 52.2079H192.411C191.234 42.9188 186 37.6855 177.496 37.6855C169.385 37.6855 164.02 42.9188 162.712 52.2079Z" fill="#009C4C"/>
<path d="M211.434 25.3873H227.395V34.2839C233.283 26.5648 238.385 23.6865 246.104 23.6865C254.347 23.6865 262.066 28.1348 265.598 34.938C267.43 38.2088 268.215 42.5263 268.215 48.1521V89.1025H252.253V52.3387C252.253 47.2363 251.861 45.0121 250.553 42.9188C248.459 39.5172 245.058 37.6855 240.74 37.6855C232.236 37.6855 227.395 43.4421 227.395 53.5162V89.1025H211.434V25.3873Z" fill="#009C4C"/>
<path d="M450.453 24.4318V88.147H434.492V81.6054C428.212 87.362 422.717 89.8479 415.652 89.8479C405.839 89.8479 398.12 83.9604 395.373 74.6713C394.457 71.4005 394.195 68.2605 394.195 60.0181V24.4318H410.157V59.1023C410.157 65.5131 410.288 66.6906 411.073 69.0455C412.512 73.363 416.306 75.8488 421.408 75.8488C425.464 75.8488 429.389 74.0172 431.613 71.1389C433.707 68.5222 434.492 65.5131 434.492 60.0181V24.4318H450.453Z" fill="#009C4C"/>
<path d="M453.029 24.4318H468.991V33.3284C474.878 25.6093 479.98 22.731 487.7 22.731C495.942 22.731 503.661 27.1793 507.193 33.9825C509.025 37.2533 509.81 41.5708 509.81 47.1966V88.147H493.849V51.3832C493.849 46.2808 493.456 44.0566 492.148 41.9633C490.055 38.5617 486.653 36.73 482.335 36.73C473.831 36.73 468.991 42.4866 468.991 52.5607V88.147H453.029V24.4318Z" fill="#009C4C"/>
<path d="M566.584 43.4024H552.585C551.015 37.3842 546.96 34.5059 539.895 34.5059C533.091 34.5059 528.381 37.515 528.381 41.8325C528.381 43.7949 529.69 45.4958 531.783 46.4116C534.138 47.4582 537.016 48.1124 545.913 49.6824C555.071 51.2524 558.996 52.5607 562.529 55.3082C566.323 58.4481 568.547 63.2889 568.547 69.0455C568.547 81.4746 557.688 89.8479 541.465 89.8479C524.326 89.8479 513.859 81.8671 512.42 67.7372H527.073C528.381 74.8021 532.961 78.073 541.334 78.073C548.66 78.073 553.501 74.933 553.501 70.0922C553.501 66.1672 551.146 64.7281 542.642 63.2889C532.568 61.4573 525.634 59.364 521.578 56.7473C516.476 53.4765 513.859 48.7666 513.859 43.2716C513.859 31.2351 524.457 22.731 539.371 22.731C554.94 22.731 565.276 30.5809 566.584 43.4024Z" fill="#009C4C"/>
<path d="M595.883 26.1326H607.919V36.2067H595.883V68.5222C595.883 73.363 596.144 74.8022 597.191 76.1105C598.238 77.5496 600.462 78.3346 603.078 78.3346L607.527 78.2038L608.835 78.073V89.8479H597.453C591.565 89.8479 590.388 89.717 588.164 88.8012C583.846 87.1004 581.491 84.0912 580.575 79.3813C580.052 76.8955 579.921 74.2788 579.921 68.5222V36.2067H571.025V26.1326H579.921V4.93779H595.883V26.1326Z" fill="#009C4C"/>
<path d="M148.047 115.138V178.853H132.085V172.312C125.805 178.068 120.31 180.554 113.245 180.554C103.433 180.554 95.714 174.667 92.9665 165.378C92.0507 162.107 91.789 158.967 91.789 150.725V115.138H107.75V149.809C107.75 156.219 107.881 157.397 108.666 159.752C110.105 164.069 113.9 166.555 119.002 166.555C123.058 166.555 126.983 164.724 129.207 161.845C131.3 159.229 132.085 156.219 132.085 150.725V115.138H148.047Z" fill="#009C4C"/>
<path d="M204.776 134.109H190.777C189.207 128.091 185.152 125.212 178.087 125.212C171.283 125.212 166.573 128.221 166.573 132.539C166.573 134.501 167.882 136.202 169.975 137.118C172.33 138.165 175.208 138.819 184.105 140.389C193.263 141.959 197.188 143.267 200.721 146.015C204.515 149.155 206.739 153.995 206.739 159.752C206.739 172.181 195.88 180.554 179.657 180.554C162.518 180.554 152.051 172.573 150.612 158.444H165.265C166.573 165.509 171.153 168.779 179.526 168.779C186.852 168.779 191.693 165.639 191.693 160.799C191.693 156.874 189.338 155.434 180.834 153.995C170.76 152.164 163.826 150.07 159.77 147.454C154.668 144.183 152.051 139.473 152.051 133.978C152.051 121.941 162.648 113.437 177.563 113.437C193.132 113.437 203.468 121.287 204.776 134.109Z" fill="#009C4C"/>
<path d="M272.079 150.725H229.592C230.769 161.845 236.264 167.863 245.292 167.863C251.572 167.863 252.062 165.116 254.94 159.752H271.425C267.631 172.573 255.987 180.554 241.465 180.554C222.494 180.554 209.149 166.686 209.149 147.061C209.149 127.044 221.709 113.437 240.156 113.437C259.65 113.437 271.687 127.436 272.079 150.725ZM225.896 140.258H255.595C254.417 130.969 249.184 125.736 240.68 125.736C232.568 125.736 227.204 130.969 225.896 140.258Z" fill="#009C4C"/>
<path d="M330.744 115.138V178.853H314.783V172.312C308.503 178.068 303.008 180.554 295.943 180.554C286.131 180.554 278.412 174.667 275.664 165.378C274.748 162.107 274.487 158.967 274.487 150.725V115.138H290.448V149.809C290.448 156.219 290.579 157.397 291.364 159.752C292.803 164.069 296.597 166.555 301.7 166.555C305.755 166.555 309.68 164.724 311.905 161.845C313.998 159.229 314.783 156.219 314.783 150.725V115.138H330.744Z" fill="#009C4C"/>
<path d="M2.41031 115.138H17.2386V123.119C21.0064 116.577 26.3542 113.437 33.6468 113.437C41.9117 113.437 47.5027 117.101 51.2706 125.212C55.6461 117.362 61.9662 113.437 69.9881 113.437C78.7391 113.437 85.667 118.801 87.9763 127.436C88.9486 130.576 89.1917 133.978 89.1917 140.781V178.853H74.3636V142.482C74.3636 137.641 73.999 135.025 73.1482 132.931C71.6897 129.53 68.408 127.306 64.5187 127.306C60.0216 127.306 56.0107 130.053 54.4306 134.24C53.4583 136.595 53.2152 138.688 53.2152 143.267V178.853H38.387V142.482C38.387 138.034 38.1439 135.417 37.4146 133.586C35.713 129.661 32.5529 127.436 28.542 127.436C24.288 127.436 20.5202 129.922 18.5755 133.847C17.4817 136.071 17.2386 137.772 17.2386 142.482V178.853H2.41031V115.138Z" fill="#009C4C"/>
<path d="M333.066 115.138H347.894V123.119C351.662 116.577 357.009 113.437 364.302 113.437C372.567 113.437 378.158 117.101 381.926 125.212C386.301 117.362 392.622 113.437 400.643 113.437C409.394 113.437 416.322 118.801 418.632 127.436C419.604 130.576 419.847 133.978 419.847 140.781V178.853H405.019V142.482C405.019 137.641 404.654 135.025 403.803 132.931C402.345 129.53 399.063 127.306 395.174 127.306C390.677 127.306 386.666 130.053 385.086 134.24C384.114 136.595 383.871 138.688 383.871 143.267V178.853H369.042V142.482C369.042 138.034 368.799 135.417 368.07 133.586C366.368 129.661 363.208 127.436 359.197 127.436C354.943 127.436 351.176 129.922 349.231 133.847C348.137 136.071 347.894 137.772 347.894 142.482V178.853H333.066V115.138Z" fill="#009C4C"/>
<path d="M0 28.9237H16.8773L30.3531 73.93L43.3054 28.9237H59.3978L38.3338 92.639H22.2415L0 28.9237Z" fill="#009C4C"/>
<path d="M345.955 68.1567V89.3134H329.994V0H345.955V50.2137L369.112 24.1026H388.214L365.187 48.7407L391.746 89.3134H371.467L354.067 59.5869L345.955 68.1567Z" fill="#009C4C"/>
</svg>
