<svg width="284" height="207" viewBox="0 0 284 207" fill="none" xmlns="http://www.w3.org/2000/svg">
<mask id="path-1-inside-1_1155_17481" fill="white">
<path d="M115.702 37.7254L119.054 31.8695C121.653 27.3283 125.576 24.2173 130.133 22.0417C134.342 20.0355 138.683 19.4526 143.275 19.2492L151.212 18.8968L158.786 15.4401C170.388 10.5872 182.324 7.57113 194.832 6.49347C200.504 6.00547 205.96 6.92725 211.542 8.3438C221.638 10.9058 231.219 14.4235 240.877 18.3885L246.041 20.9437L234.794 27.369C232.237 28.8262 229.61 29.8497 226.837 30.7443C225.248 31.2527 223.715 30.8731 222.084 30.5952C215.597 29.4905 209.207 28.8127 202.727 29.2261L196.33 30.0598C179.453 32.2558 168.346 43.3646 153.678 50.0745C147.135 53.0703 137.819 55.2189 130.879 53.111C136.934 57.3674 147.804 55.1308 154.57 51.6809C162.946 47.4109 171.9 40.2468 178.262 37.5424C179.739 36.9189 181.474 37.1764 182.854 38.2812C192.33 45.8723 200.706 54.819 208.002 64.9789L201.73 65.1754C200.748 65.2093 199.598 65.4804 198.79 66.3683C202.476 65.4398 206.343 65.3381 210.009 66.8834C217.541 70.0554 220.544 80.2085 219.213 88.5181C218.029 95.8788 213.075 102.04 206.587 105.036C198.985 108.54 201.884 114.43 197.417 121.567C193.431 127.931 188.136 132.75 182.136 136.952C178.931 139.195 174.471 142.842 176.374 145.804C178.199 148.637 185.216 146.698 191.843 149.152C199.988 152.168 205.005 159.149 212.914 162.057C218.977 164.28 221.506 168.801 226.307 169.126L235.296 169.743C239.651 170.041 245.114 171.647 245.839 175.795C246.187 177.775 245.33 179.706 243.846 181.279C238.703 186.735 231.47 188.158 227.805 194.075L222.976 201.876C222.077 203.327 220.753 205.197 218.997 205.38L204.295 206.899C200.504 207.292 196.588 206.356 193.961 203.476C191.62 200.914 189 199.104 185.502 198.698C183.718 198.487 182.234 197.295 182.296 195.193C182.331 193.98 182.408 192.448 183.356 191.601C185.404 189.785 192.435 193.228 199.459 192.767C202.149 192.591 204.406 191.35 206.322 189.507C209.061 186.87 213.081 182.539 212.329 179.91C212.099 179.11 211.165 178.344 210.05 178.202C203.918 177.422 198.163 175.965 192.33 173.857L185.348 171.885C179.467 170.224 173.865 168.211 168.388 165.27C161.239 161.433 155.783 163.182 151.679 159.156C148.348 155.882 149.477 149.389 151.567 144.665L157.511 131.245C161.957 121.207 166.96 111.685 172.959 102.528C176.429 97.2275 180.394 92.7 184.359 87.7183C176.778 93.2219 168.5 106.459 164.179 115.087L157.866 127.694L140.585 139.589C133.875 144.211 136.544 151.585 133.283 159.434C131.046 164.815 127.388 169.289 122.789 172.732L116.26 177.619C110.957 181.59 109.208 187.44 110.992 193.784C111.995 197.342 109.292 200.419 106.205 201.043C99.9125 202.31 93.0838 197.803 84.1785 198.596C77.3916 199.206 70.0263 201.083 67.1206 193.384C66.2217 190.998 64.5633 189.697 62.1524 189.636L57.4907 189.514C56.2922 189.48 55.2748 189.249 54.5293 188.517C53.7349 187.738 53.4562 186.538 53.4562 185.257C53.4562 182.004 55.7905 179.916 58.8704 180.208C62.1733 180.52 65.281 181.326 68.4724 182.241C78.0745 184.993 84.9311 183.251 92.4009 176.338C97.2298 171.864 100.714 166.503 103.508 160.539C105.417 156.465 107.515 153.049 110.476 149.64C114.197 145.356 116.371 140.151 116.511 134.356C116.629 129.517 118.65 125.335 122.928 123.037C130.558 118.944 131.52 112.071 137.366 106.079C143.47 99.8302 151.811 97.4783 155.65 92.7677C157.817 90.1109 158.8 86.6949 157.406 83.5025C156.396 81.1913 154.556 79.585 152.577 78.1142C152.954 77.0365 154.11 76.8264 154.835 76.2164C157.448 74.0069 159.483 71.4516 161.552 68.5711C164.507 64.4705 169.789 62.261 174.415 64.762C178.123 66.7682 179.725 71.594 178.492 75.5251C177.433 78.8869 173.844 80.6965 170.855 79.097C168.736 77.9651 167.852 75.1455 168.416 72.9766C168.869 71.2619 169.956 70.2384 171.454 69.7504C169.761 69.2218 168.214 70.496 167.587 72.0413C166.569 74.522 167.42 77.1043 169.169 78.9072C170.75 80.5339 173.503 81.2455 175.844 80.2085C179.732 78.487 180.966 73.9391 179.739 69.9538C177.955 64.1384 172.597 61.1427 166.946 62.9117C163.88 63.8741 161.65 66.1243 159.476 68.5982L156.389 72.1159C153.727 75.1523 150.201 76.4604 146.341 76.6502C136.077 77.1382 126.433 75.1794 117.605 75.8843C116.901 75.9385 116.239 76.2774 115.619 76.7451L98.9091 89.1891C95.5923 91.6562 92.1361 93.0185 88.3664 94.347C85.7673 95.262 82.6246 100.962 77.308 101.193C74.4023 101.321 71.9634 98.0883 69.448 97.824L64.0686 97.2614C59.0028 96.7327 54.3829 95.4179 49.9164 92.7949L37.9243 85.7595C25.5419 78.4938 11.7381 85.0343 2.47054 80.9134C1.72495 80.5813 1.20931 79.8154 1.25112 79.036C1.28596 78.426 2.1082 77.7279 2.87469 77.5652C6.44933 76.8129 10.0588 76.3316 13.5777 75.2336C15.0689 74.7728 15.8075 73.7493 15.7936 72.0955C15.7517 67.2562 12.414 62.6609 9.16689 59.0415C6.74199 56.3372 4.79789 59.5499 0.491598 60.5191C-0.602394 60.7631 -0.00313725 56.6151 3.64118 54.1683C7.06949 51.8707 10.7277 50.1898 13.2781 53.3347C15.4312 49.6679 18.755 45.4318 22.0718 47.0042C26.6499 49.1799 26.3642 55.6798 31.8272 61.3867C32.2731 61.8543 32.5658 62.7151 32.7191 63.2912L34.3148 69.1201C34.8653 71.1263 36.1683 72.4548 38.0706 73.058C44.5021 75.0913 51.0034 76.0876 57.6928 76.8671L71.1482 78.4328C77.6773 79.1919 81.0568 76.3723 85.7951 71.7702C86.9054 69.6781 87.5836 67.995 87.8298 66.7208L88.9796 64.3892L85.1819 66.4429C80.9314 68.7405 76.8829 71.0043 72.1725 72.1836C69.7267 72.8004 67.1555 73.4104 64.7375 72.6784C63.1558 72.1972 62.4868 70.1029 62.5356 68.5643L62.7168 62.8371C62.8004 60.126 62.4381 57.6114 60.8005 55.3951C60.8842 54.5479 60.926 53.7074 60.8005 53.0093L57.5046 51.7215C56.6336 51.3827 55.3306 50.6642 55.5814 49.4307C56.543 44.6862 61.8318 45.059 62.8631 38.5388C63.5251 34.3637 65.1905 30.4868 67.5457 27.0437L67.8592 21.3029C68.5421 8.64202 77.4822 -0.196195 79.7399 1.4508C79.9489 1.60669 80.151 1.92525 79.9977 2.3658L77.8585 8.59458C77.0989 12.8849 77.9003 17.2227 78.7155 21.7638C87.133 17.4938 95.9128 16.9245 103.682 22.5636C108.225 25.8576 112.539 34.75 113.452 40.3823M21.1172 65.3449C20.4204 60.9868 19.0686 57.5098 19.1522 53.538C17.3335 54.5208 16.1698 54.9952 14.5254 55.6798C17.3823 58.8111 19.3543 61.9424 21.1172 65.3449Z"/>
</mask>
<path d="M119.054 31.8695L116.886 30.6288L116.886 30.6288L119.054 31.8695ZM130.133 22.0417L129.059 19.7872L129.057 19.7878L130.133 22.0417ZM143.275 19.2492L143.386 21.7443L143.386 21.7443L143.275 19.2492ZM151.212 18.8968L151.323 21.3919L151.807 21.3704L152.249 21.1689L151.212 18.8968ZM158.786 15.4401L157.822 13.136L157.785 13.1514L157.749 13.168L158.786 15.4401ZM194.832 6.49347L194.618 4.00511L194.618 4.00514L194.832 6.49347ZM211.542 8.3438L210.927 10.7646L210.927 10.7646L211.542 8.3438ZM240.877 18.3885L241.985 16.15L241.907 16.1112L241.826 16.078L240.877 18.3885ZM246.041 20.9437L247.28 23.1123L251.352 20.7856L247.148 18.7052L246.041 20.9437ZM234.794 27.369L236.031 29.539L236.033 29.5376L234.794 27.369ZM226.837 30.7443L227.598 33.1231L227.603 33.1213L226.837 30.7443ZM222.084 30.5952L222.504 28.1332L222.504 28.1331L222.084 30.5952ZM202.727 29.2261L202.568 26.7336L202.486 26.7389L202.404 26.7495L202.727 29.2261ZM196.33 30.0598L196.652 32.5365L196.653 32.5364L196.33 30.0598ZM153.678 50.0745L152.639 47.8034L152.639 47.8037L153.678 50.0745ZM130.879 53.111L131.605 50.7212L129.443 55.1542L130.879 53.111ZM154.57 51.6809L153.436 49.4558L153.436 49.4559L154.57 51.6809ZM178.262 37.5424L177.291 35.2415L177.285 35.2439L178.262 37.5424ZM182.854 38.2812L184.415 36.332L184.415 36.3317L182.854 38.2812ZM208.002 64.9789L208.08 67.4752L212.764 67.3284L210.03 63.5221L208.002 64.9789ZM201.73 65.1754L201.652 62.6791L201.644 62.6794L201.73 65.1754ZM198.79 66.3683L196.943 64.687L191.365 70.8143L199.4 68.7902L198.79 66.3683ZM210.009 66.8834L209.038 69.1848L209.039 69.1852L210.009 66.8834ZM219.213 88.5181L221.679 88.9149L221.68 88.9131L219.213 88.5181ZM206.587 105.036L207.633 107.304L207.634 107.303L206.587 105.036ZM197.417 121.567L199.534 122.892L199.534 122.891L197.417 121.567ZM182.136 136.952L183.568 138.998L183.569 138.998L182.136 136.952ZM176.374 145.804L174.272 147.154L174.274 147.157L176.374 145.804ZM191.843 149.152L192.71 146.81L192.71 146.81L191.843 149.152ZM212.914 162.057L212.052 164.401L212.054 164.402L212.914 162.057ZM226.307 169.126L226.478 166.634L226.476 166.634L226.307 169.126ZM235.296 169.743L235.125 172.235L235.125 172.235L235.296 169.743ZM245.839 175.795L243.378 176.225L243.379 176.228L245.839 175.795ZM243.846 181.279L242.029 179.564L242.028 179.566L243.846 181.279ZM227.805 194.075L225.682 192.76L225.681 192.761L227.805 194.075ZM222.976 201.876L225.099 203.192L225.1 203.191L222.976 201.876ZM218.997 205.38L219.254 207.865L219.256 207.865L218.997 205.38ZM204.295 206.899L204.038 204.414L204.037 204.414L204.295 206.899ZM193.961 203.476L195.806 201.793L195.805 201.791L193.961 203.476ZM185.502 198.698L185.21 201.178L185.213 201.178L185.502 198.698ZM182.296 195.193L184.793 195.268L184.793 195.265L182.296 195.193ZM183.356 191.601L181.699 189.732L181.691 189.739L183.356 191.601ZM199.459 192.767L199.296 190.275L199.295 190.275L199.459 192.767ZM206.322 189.507L208.054 191.307L208.055 191.306L206.322 189.507ZM212.329 179.91L214.73 179.222L214.729 179.219L212.329 179.91ZM210.05 178.202L210.367 175.724L210.365 175.724L210.05 178.202ZM192.33 173.857L193.179 171.508L193.095 171.478L193.009 171.454L192.33 173.857ZM185.348 171.885L186.027 169.481L186.027 169.481L185.348 171.885ZM168.388 165.27L169.57 163.069L169.569 163.069L168.388 165.27ZM151.679 159.156L149.928 160.937L149.93 160.939L151.679 159.156ZM151.567 144.665L149.283 143.654L149.283 143.655L151.567 144.665ZM157.511 131.245L159.794 132.257L159.794 132.257L157.511 131.245ZM172.959 102.528L175.048 103.897L175.049 103.896L172.959 102.528ZM184.359 87.7183L186.313 89.2736L182.892 85.6972L184.359 87.7183ZM164.179 115.087L166.413 116.205L166.413 116.205L164.179 115.087ZM157.866 127.694L159.282 129.751L159.812 129.387L160.099 128.812L157.866 127.694ZM140.585 139.589L139.169 137.531L139.169 137.532L140.585 139.589ZM133.283 159.434L135.589 160.393L135.589 160.392L133.283 159.434ZM122.789 172.732L124.285 174.731L124.286 174.731L122.789 172.732ZM116.26 177.619L114.763 175.619L114.762 175.62L116.26 177.619ZM110.992 193.784L108.587 194.46L108.588 194.462L110.992 193.784ZM106.205 201.043L106.698 203.491L106.699 203.491L106.205 201.043ZM84.1785 198.596L83.957 196.108L83.955 196.108L84.1785 198.596ZM67.1206 193.384L64.7834 194.264L64.7839 194.266L67.1206 193.384ZM62.1524 189.636L62.087 192.132L62.0892 192.132L62.1524 189.636ZM57.4907 189.514L57.4201 192.01L57.4254 192.01L57.4907 189.514ZM54.5293 188.517L56.279 186.735L56.2785 186.735L54.5293 188.517ZM58.8704 180.208L58.6351 182.694L58.6357 182.694L58.8704 180.208ZM68.4724 182.241L67.7841 184.642L67.7844 184.642L68.4724 182.241ZM92.4009 176.338L94.0973 178.171L94.0982 178.17L92.4009 176.338ZM103.508 160.539L101.247 159.479L101.246 159.479L103.508 160.539ZM110.476 149.64L108.591 148.002H108.591L110.476 149.64ZM116.511 134.356L114.014 134.295L114.014 134.296L116.511 134.356ZM122.928 123.037L121.747 120.836L121.747 120.837L122.928 123.037ZM137.366 106.079L135.579 104.334L135.579 104.335L137.366 106.079ZM155.65 92.7677L153.715 91.1891L153.714 91.1898L155.65 92.7677ZM157.406 83.5025L159.695 82.5033L159.695 82.5021L157.406 83.5025ZM152.577 78.1142L150.219 77.2909L149.614 79.0238L151.088 80.1188L152.577 78.1142ZM154.835 76.2164L156.443 78.1272L156.448 78.1236L154.835 76.2164ZM161.552 68.5711L159.526 67.1111L159.524 67.1138L161.552 68.5711ZM174.415 64.762L175.604 62.5655L175.603 62.5649L174.415 64.762ZM178.492 75.5251L180.874 76.2756L180.875 76.2727L178.492 75.5251ZM170.855 79.097L172.033 76.8949L172.032 76.8942L170.855 79.097ZM168.416 72.9766L166.001 72.3388L165.999 72.3476L168.416 72.9766ZM171.454 69.7504L172.228 72.1252L179.673 69.7L172.198 67.3664L171.454 69.7504ZM167.587 72.0413L169.898 72.989L169.901 72.9805L167.587 72.0413ZM169.169 78.9072L167.376 80.6462L167.378 80.6483L169.169 78.9072ZM175.844 80.2085L174.833 77.9248L174.833 77.9249L175.844 80.2085ZM179.739 69.9538L177.351 70.6862L177.352 70.6883L179.739 69.9538ZM166.946 62.9117L166.2 60.5282L166.198 60.5288L166.946 62.9117ZM159.476 68.5982L157.6 66.9495L157.599 66.9509L159.476 68.5982ZM156.389 72.1159L154.512 70.4685L154.511 70.4695L156.389 72.1159ZM146.341 76.6502L146.46 79.1449L146.464 79.1447L146.341 76.6502ZM117.605 75.8843L117.796 78.3745L117.803 78.3739L117.605 75.8843ZM115.619 76.7451L117.11 78.7482L117.116 78.7437L117.122 78.7392L115.619 76.7451ZM98.9091 89.1891L100.4 91.1931L100.401 91.1922L98.9091 89.1891ZM88.3664 94.347L89.1957 96.7028L89.1965 96.7025L88.3664 94.347ZM77.308 101.193L77.1998 98.6973L77.1974 98.6974L77.308 101.193ZM69.448 97.824L69.709 95.3401L69.7077 95.34L69.448 97.824ZM64.0686 97.2614L64.3284 94.7774L64.3278 94.7774L64.0686 97.2614ZM49.9164 92.7949L51.1811 90.6412L51.1802 90.6407L49.9164 92.7949ZM37.9243 85.7595L36.6603 87.9136L36.6605 87.9137L37.9243 85.7595ZM2.47054 80.9134L1.4543 83.1949L1.45579 83.1955L2.47054 80.9134ZM1.25112 79.036L-1.24238 78.8936L-1.24284 78.9022L1.25112 79.036ZM2.87469 77.5652L2.36031 75.1212L2.3562 75.1221L2.87469 77.5652ZM13.5777 75.2336L12.8402 72.8475L12.8338 72.8495L13.5777 75.2336ZM15.7936 72.0955L18.291 72.0745L18.291 72.074L15.7936 72.0955ZM9.16689 59.0415L7.3074 60.7089L7.30786 60.7094L9.16689 59.0415ZM0.491598 60.5191L1.03528 62.9568L1.04001 62.9557L0.491598 60.5191ZM3.64118 54.1683L2.25071 52.0936L2.24901 52.0948L3.64118 54.1683ZM13.2781 53.3347L11.3382 54.9078L13.6075 57.7061L15.4318 54.5993L13.2781 53.3347ZM22.0718 47.0042L23.1439 44.7484L23.1417 44.7474L22.0718 47.0042ZM31.8272 61.3867L33.6347 59.6631L33.6313 59.6596L31.8272 61.3867ZM32.7191 63.2912L30.3055 63.9334L30.3078 63.9421L30.3102 63.9507L32.7191 63.2912ZM34.3148 69.1201L31.9059 69.7795L31.9063 69.781L34.3148 69.1201ZM38.0706 73.058L37.3157 75.4387L37.3177 75.4394L38.0706 73.058ZM57.6928 76.8671L57.4037 79.3479L57.4041 79.3479L57.6928 76.8671ZM71.1482 78.4328L70.8595 80.9136L70.8597 80.9136L71.1482 78.4328ZM85.7951 71.7702L87.5352 73.5618L87.8171 73.288L88.0013 72.941L85.7951 71.7702ZM87.8298 66.7208L85.5898 65.6162L85.4413 65.9173L85.3776 66.2469L87.8298 66.7208ZM88.9796 64.3892L91.2196 65.4938L94.6862 58.4638L87.7915 62.1923L88.9796 64.3892ZM85.1819 66.4429L86.3696 68.64L86.37 68.6398L85.1819 66.4429ZM72.1725 72.1836L71.5659 69.7609L71.5618 69.7619L72.1725 72.1836ZM64.7375 72.6784L64.0106 75.0678L64.0139 75.0688L64.7375 72.6784ZM62.5356 68.5643L65.0319 68.6435L65.0319 68.6433L62.5356 68.5643ZM62.7168 62.8371L65.2131 62.9161L65.2131 62.9141L62.7168 62.8371ZM60.8005 55.3951L58.3151 55.1498L58.2207 56.1062L58.7918 56.8792L60.8005 55.3951ZM60.8005 53.0093L63.2587 52.5677L63.0115 51.1918L61.7095 50.683L60.8005 53.0093ZM57.5046 51.7215L58.4136 49.3953L58.4102 49.394L57.5046 51.7215ZM55.5814 49.4307L58.0289 49.9284L58.0292 49.9268L55.5814 49.4307ZM62.8631 38.5388L60.3964 38.1477L60.3962 38.1486L62.8631 38.5388ZM67.5457 27.0437L69.6071 28.4538L70.0014 27.8773L70.0395 27.1799L67.5457 27.0437ZM67.8592 21.3029L70.3531 21.4391L70.3532 21.4374L67.8592 21.3029ZM79.7399 1.4508L81.2329 -0.551337L81.2224 -0.559175L81.2118 -0.566902L79.7399 1.4508ZM79.9977 2.3658L77.6388 1.545L77.6356 1.55456L79.9977 2.3658ZM77.8585 8.59458L75.4963 7.78333L75.4331 7.96748L75.3992 8.1592L77.8585 8.59458ZM78.7155 21.7638L76.2573 22.2051L76.8507 25.5103L79.8454 23.9911L78.7155 21.7638ZM103.682 22.5636L102.215 24.5848L102.216 24.5856L103.682 22.5636ZM21.1172 65.3449L18.8996 66.4939L23.5834 64.9506L21.1172 65.3449ZM19.1522 53.538L21.6492 53.5906L21.7395 49.301L17.9648 51.3407L19.1522 53.538ZM14.5254 55.6798L13.5655 53.374L10.2863 54.7391L12.6803 57.3631L14.5254 55.6798ZM115.702 37.7254L117.87 38.9661L121.222 33.1101L119.054 31.8695L116.886 30.6288L113.535 36.4848L115.702 37.7254ZM119.054 31.8695L121.222 33.1101C123.509 29.1139 126.989 26.3104 131.209 24.2955L130.133 22.0417L129.057 19.7878C124.163 22.1243 119.797 25.5427 116.886 30.6288L119.054 31.8695ZM130.133 22.0417L131.208 24.2962C134.971 22.5022 138.921 21.942 143.386 21.7443L143.275 19.2492L143.165 16.7541C138.445 16.9631 133.712 17.5688 129.059 19.7872L130.133 22.0417ZM143.275 19.2492L143.386 21.7443L151.323 21.3919L151.212 18.8968L151.101 16.4017L143.164 16.7541L143.275 19.2492ZM151.212 18.8968L152.249 21.1689L159.823 17.7123L158.786 15.4401L157.749 13.168L150.175 16.6247L151.212 18.8968ZM158.786 15.4401L159.75 17.7442C171.123 12.9869 182.807 10.0363 195.046 8.9818L194.832 6.49347L194.618 4.00514C181.841 5.10595 169.653 8.18758 157.822 13.136L158.786 15.4401ZM194.832 6.49347L195.046 8.98182C200.314 8.52861 205.457 9.37636 210.927 10.7646L211.542 8.3438L212.156 5.923C206.463 4.47813 200.694 3.48232 194.618 4.00511L194.832 6.49347ZM211.542 8.3438L210.927 10.7646C220.864 13.2859 230.323 16.7555 239.929 20.6989L240.877 18.3885L241.826 16.078C232.115 12.0915 222.413 8.5257 212.156 5.92297L211.542 8.3438ZM240.877 18.3885L239.77 20.6269L244.933 23.1821L246.041 20.9437L247.148 18.7052L241.985 16.15L240.877 18.3885ZM246.041 20.9437L244.802 18.7751L233.555 25.2004L234.794 27.369L236.033 29.5376L247.28 23.1123L246.041 20.9437ZM234.794 27.369L233.558 25.199C231.205 26.5399 228.754 27.5015 226.07 28.3674L226.837 30.7443L227.603 33.1213C230.466 32.1979 233.269 31.1126 236.031 29.539L234.794 27.369ZM226.837 30.7443L226.075 28.3656C225.211 28.6423 224.424 28.4604 222.504 28.1332L222.084 30.5952L221.665 33.0573C223.006 33.2858 225.285 33.8631 227.598 33.1231L226.837 30.7443ZM222.084 30.5952L222.504 28.1331C215.924 27.0127 209.321 26.3028 202.568 26.7336L202.727 29.2261L202.886 31.7186C209.093 31.3226 215.27 31.9682 221.665 33.0573L222.084 30.5952ZM202.727 29.2261L202.404 26.7495L196.007 27.5832L196.33 30.0598L196.653 32.5364L203.05 31.7027L202.727 29.2261ZM196.33 30.0598L196.008 27.5831C187.088 28.7438 179.755 32.2588 172.925 36.213C165.971 40.2387 159.836 44.5113 152.639 47.8034L153.678 50.0745L154.717 52.3457C162.189 48.9278 168.941 44.291 175.427 40.5359C182.037 36.7092 188.696 33.5718 196.652 32.5365L196.33 30.0598ZM153.678 50.0745L152.639 47.8037C149.553 49.2166 145.803 50.4318 142.029 51.041C138.233 51.6539 134.584 51.6261 131.605 50.7212L130.879 53.111L130.153 55.5008C134.114 56.7037 138.593 56.6556 142.826 55.9723C147.081 55.2852 151.261 53.9282 154.718 52.3454L153.678 50.0745ZM130.879 53.111L129.443 55.1542C133.185 57.7851 138.137 58.2558 142.722 57.7694C147.368 57.2765 152.07 55.759 155.705 53.9059L154.57 51.6809L153.436 49.4559C150.304 51.0526 146.189 52.3784 142.195 52.8022C138.139 53.2325 134.628 52.6933 132.315 51.0677L130.879 53.111ZM154.57 51.6809L155.705 53.906C160.037 51.6974 164.492 48.755 168.536 46.1162C172.674 43.4157 176.304 41.0887 179.239 39.841L178.262 37.5424L177.285 35.2439C173.858 36.7005 169.829 39.3077 165.806 41.9329C161.689 44.6197 157.479 47.3944 153.436 49.4558L154.57 51.6809ZM178.262 37.5424L179.233 39.8434C179.801 39.6035 180.573 39.654 181.293 40.2308L182.854 38.2812L184.415 36.3317C182.376 34.6989 179.677 34.2342 177.291 35.2415L178.262 37.5424ZM182.854 38.2812L181.292 40.2305C190.58 47.6705 198.801 56.4484 205.973 66.4356L208.002 64.9789L210.03 63.5221C202.611 53.1896 194.081 44.0742 184.415 36.332L182.854 38.2812ZM208.002 64.9789L207.924 62.4826L201.652 62.6791L201.73 65.1754L201.809 67.6718L208.08 67.4752L208.002 64.9789ZM201.73 65.1754L201.644 62.6794C200.347 62.7241 198.399 63.0875 196.943 64.687L198.79 66.3683L200.637 68.0496C200.797 67.8733 201.149 67.6945 201.817 67.6715L201.73 65.1754ZM198.79 66.3683L199.4 68.7902C202.738 67.9493 206.019 67.9118 209.038 69.1848L210.009 66.8834L210.979 64.5821C206.668 62.7644 202.214 62.9302 198.18 63.9464L198.79 66.3683ZM210.009 66.8834L209.039 69.1852C212.002 70.4328 214.242 73.1259 215.603 76.6696C216.964 80.2116 217.347 84.3804 216.747 88.1231L219.213 88.5181L221.68 88.9131C222.411 84.3462 221.958 79.2837 220.266 74.8788C218.575 70.4755 215.548 66.506 210.978 64.5816L210.009 66.8834ZM219.213 88.5181L216.748 88.1213C215.701 94.6221 211.309 100.104 205.54 102.768L206.587 105.036L207.634 107.303C214.84 103.976 220.356 97.1354 221.679 88.9149L219.213 88.5181ZM206.587 105.036L205.542 102.767C203.327 103.788 201.731 105.056 200.577 106.595C199.441 108.11 198.848 109.738 198.421 111.266C197.533 114.443 197.28 117.078 195.3 120.242L197.417 121.567L199.534 122.891C202.021 118.918 202.552 115.04 203.232 112.611C203.588 111.337 203.975 110.389 204.574 109.591C205.154 108.818 206.046 108.035 207.633 107.304L206.587 105.036ZM197.417 121.567L195.3 120.241C191.55 126.23 186.534 130.822 180.703 134.906L182.136 136.952L183.569 138.998C189.737 134.678 195.313 129.632 199.534 122.892L197.417 121.567ZM182.136 136.952L180.704 134.906C179.077 136.045 176.916 137.681 175.406 139.527C174.001 141.245 172.371 144.193 174.272 147.154L176.374 145.804L178.475 144.454C178.474 144.453 178.122 144.097 179.273 142.69C180.318 141.411 181.99 140.103 183.568 138.998L182.136 136.952ZM176.374 145.804L174.274 147.157C175.23 148.64 176.74 149.279 178.022 149.6C179.297 149.919 180.778 150.027 182.151 150.113C185.066 150.296 188.076 150.421 190.976 151.494L191.843 149.152L192.71 146.81C188.983 145.43 185.171 145.297 182.464 145.128C181.027 145.037 179.997 144.945 179.236 144.754C178.482 144.566 178.43 144.384 178.473 144.451L176.374 145.804ZM191.843 149.152L190.975 151.494C194.646 152.853 197.655 155.117 200.953 157.631C204.165 160.08 207.687 162.796 212.052 164.401L212.914 162.057L213.776 159.713C210.232 158.41 207.292 156.182 203.981 153.659C200.758 151.202 197.185 148.467 192.71 146.81L191.843 149.152ZM212.914 162.057L212.054 164.402C214.693 165.369 216.546 166.817 218.614 168.322C220.595 169.765 222.949 171.402 226.138 171.618L226.307 169.126L226.476 166.634C224.864 166.525 223.552 165.739 221.553 164.284C219.641 162.892 217.198 160.968 213.774 159.712L212.914 162.057ZM226.307 169.126L226.136 171.618L235.125 172.235L235.296 169.743L235.467 167.251L226.478 166.634L226.307 169.126ZM235.296 169.743L235.125 172.235C237.115 172.371 239.231 172.803 240.851 173.578C242.481 174.359 243.211 175.27 243.378 176.225L245.839 175.795L248.299 175.366C247.741 172.173 245.378 170.207 243.007 169.073C240.625 167.933 237.831 167.413 235.466 167.251L235.296 169.743ZM245.839 175.795L243.379 176.228C243.545 177.173 243.18 178.345 242.029 179.564L243.846 181.279L245.662 182.993C247.48 181.067 248.829 178.376 248.298 175.362L245.839 175.795ZM243.846 181.279L242.028 179.566C239.742 181.991 237.004 183.518 233.969 185.373C231.049 187.157 227.855 189.252 225.682 192.76L227.805 194.075L229.928 195.39C231.421 192.981 233.676 191.406 236.574 189.635C239.357 187.935 242.807 186.022 245.663 182.992L243.846 181.279ZM227.805 194.075L225.681 192.761L220.853 200.562L222.976 201.876L225.1 203.191L229.929 195.39L227.805 194.075ZM222.976 201.876L220.853 200.561C220.424 201.254 219.988 201.886 219.53 202.35C219.058 202.828 218.795 202.89 218.739 202.896L218.997 205.38L219.256 207.865C220.955 207.687 222.233 206.723 223.086 205.858C223.954 204.978 224.63 203.95 225.099 203.192L222.976 201.876ZM218.997 205.38L218.741 202.896L204.038 204.414L204.295 206.899L204.551 209.383L219.254 207.865L218.997 205.38ZM204.295 206.899L204.037 204.414C200.769 204.753 197.742 203.915 195.806 201.793L193.961 203.476L192.116 205.159C195.434 208.798 200.239 209.83 204.552 209.383L204.295 206.899ZM193.961 203.476L195.805 201.791C193.223 198.965 190.09 196.717 185.79 196.217L185.502 198.698L185.213 201.178C187.909 201.492 190.017 202.862 192.117 205.161L193.961 203.476ZM185.502 198.698L185.794 196.217C185.348 196.165 185.09 196.006 184.974 195.89C184.919 195.835 184.88 195.776 184.85 195.7C184.821 195.623 184.786 195.488 184.793 195.268L182.296 195.193L179.8 195.119C179.749 196.822 180.343 198.321 181.439 199.419C182.496 200.477 183.871 201.02 185.21 201.178L185.502 198.698ZM182.296 195.193L184.793 195.265C184.811 194.647 184.838 194.181 184.922 193.801C185.006 193.424 185.09 193.401 185.02 193.463L183.356 191.601L181.691 189.739C180.674 190.649 180.246 191.815 180.045 192.72C179.846 193.62 179.817 194.526 179.8 195.122L182.296 195.193ZM183.356 191.601L185.013 193.47C184.725 193.725 184.638 193.52 185.606 193.575C186.456 193.624 187.569 193.829 189.054 194.125C191.866 194.686 195.72 195.515 199.622 195.259L199.459 192.767L199.295 190.275C196.174 190.48 193 189.818 190.029 189.226C188.622 188.946 187.154 188.66 185.89 188.588C184.745 188.523 183.01 188.57 181.699 189.732L183.356 191.601ZM199.459 192.767L199.622 195.259C203.042 195.035 205.828 193.448 208.054 191.307L206.322 189.507L204.591 187.707C202.984 189.253 201.255 190.146 199.296 190.275L199.459 192.767ZM206.322 189.507L208.055 191.306C209.454 189.959 211.274 188.092 212.662 186.165C213.354 185.203 214.004 184.138 214.424 183.044C214.834 181.977 215.128 180.614 214.73 179.222L212.329 179.91L209.928 180.597C209.906 180.52 209.98 180.685 209.762 181.252C209.554 181.792 209.169 182.467 208.608 183.246C207.489 184.801 205.93 186.418 204.59 187.708L206.322 189.507ZM212.329 179.91L214.729 179.219C214.168 177.268 212.254 175.965 210.367 175.724L210.05 178.202L209.734 180.679C209.778 180.685 209.826 180.697 209.876 180.718C209.926 180.739 209.968 180.765 209.998 180.788C210.029 180.812 210.033 180.822 210.021 180.806C210.011 180.791 209.965 180.726 209.929 180.6L212.329 179.91ZM210.05 178.202L210.365 175.724C204.434 174.97 198.857 173.56 193.179 171.508L192.33 173.857L191.482 176.206C197.468 178.37 203.403 179.874 209.735 180.679L210.05 178.202ZM192.33 173.857L193.009 171.454L186.027 169.481L185.348 171.885L184.669 174.288L191.652 176.261L192.33 173.857ZM185.348 171.885L186.027 169.481C180.255 167.851 174.836 165.898 169.57 163.069L168.388 165.27L167.206 167.47C172.894 170.524 178.68 172.597 184.67 174.288L185.348 171.885ZM168.388 165.27L169.569 163.069C165.612 160.945 162.089 160.368 159.374 159.833C156.603 159.288 154.898 158.815 153.428 157.373L151.679 159.156L149.93 160.939C152.563 163.523 155.639 164.189 158.409 164.734C161.235 165.291 164.015 165.758 167.207 167.47L168.388 165.27ZM151.679 159.156L153.429 157.375C152.486 156.447 151.974 154.856 152.084 152.575C152.193 150.336 152.895 147.837 153.851 145.676L151.567 144.665L149.283 143.655C148.149 146.218 147.241 149.327 147.095 152.334C146.951 155.299 147.541 158.591 149.928 160.937L151.679 159.156ZM151.567 144.665L153.851 145.677L159.794 132.257L157.511 131.245L155.227 130.234L149.283 143.654L151.567 144.665ZM157.511 131.245L159.794 132.257C164.196 122.319 169.136 112.92 175.048 103.897L172.959 102.528L170.87 101.159C164.783 110.449 159.718 120.095 155.227 130.234L157.511 131.245ZM172.959 102.528L175.049 103.896C178.434 98.7246 182.256 94.3717 186.313 89.2736L184.359 87.7183L182.405 86.163C178.533 91.0282 174.424 95.7305 170.87 101.16L172.959 102.528ZM184.359 87.7183L182.892 85.6972C178.76 88.6968 174.604 93.6567 171.001 98.7975C167.366 103.984 164.155 109.557 161.946 113.969L164.179 115.087L166.413 116.205C168.524 111.989 171.612 106.63 175.092 101.664C178.603 96.6537 182.377 92.2433 185.826 89.7394L184.359 87.7183ZM164.179 115.087L161.946 113.969L155.633 126.575L157.866 127.694L160.099 128.812L166.413 116.205L164.179 115.087ZM157.866 127.694L156.45 125.636L139.169 137.531L140.585 139.589L142.001 141.646L159.282 129.751L157.866 127.694ZM140.585 139.589L139.169 137.532C135.001 140.402 133.805 144.203 133.178 147.882C132.533 151.672 132.462 154.899 130.976 158.476L133.283 159.434L135.589 160.392C137.364 156.12 137.589 151.736 138.103 148.721C138.635 145.595 139.459 143.397 142.002 141.645L140.585 139.589ZM133.283 159.434L130.977 158.475C128.926 163.408 125.565 167.533 121.292 170.733L122.789 172.732L124.286 174.731C129.21 171.044 133.166 166.223 135.589 160.393L133.283 159.434ZM122.789 172.732L121.292 170.732L114.763 175.619L116.26 177.619L117.756 179.618L124.285 174.731L122.789 172.732ZM116.26 177.619L114.762 175.62C108.575 180.254 106.545 187.195 108.587 194.46L110.992 193.784L113.396 193.108C111.871 187.685 113.339 182.927 117.757 179.618L116.26 177.619ZM110.992 193.784L108.588 194.462C109.096 196.263 107.764 198.18 105.71 198.595L106.205 201.043L106.699 203.491C110.819 202.659 114.894 198.421 113.396 193.106L110.992 193.784ZM106.205 201.043L105.712 198.594C103.213 199.098 100.513 198.474 96.7567 197.569C93.171 196.705 88.8676 195.671 83.957 196.108L84.1785 198.596L84.4001 201.084C88.3947 200.728 91.9583 201.551 95.5864 202.425C99.0441 203.259 102.904 204.255 106.698 203.491L106.205 201.043ZM84.1785 198.596L83.955 196.108C83.0757 196.187 82.1901 196.287 81.3418 196.38C80.483 196.475 79.658 196.565 78.8503 196.633C77.2216 196.769 75.7877 196.803 74.532 196.631C73.297 196.463 72.3259 196.107 71.5488 195.529C70.7853 194.96 70.0428 194.053 69.4573 192.502L67.1206 193.384L64.7839 194.266C65.6513 196.564 66.9191 198.31 68.5659 199.536C70.1992 200.751 72.0383 201.332 73.8562 201.581C75.6534 201.826 77.515 201.757 79.2669 201.61C80.1495 201.537 81.0362 201.44 81.8905 201.345C82.7554 201.25 83.5846 201.157 84.4021 201.083L84.1785 198.596ZM67.1206 193.384L69.4578 192.503C68.8833 190.979 67.9999 189.629 66.7172 188.651C65.4187 187.662 63.8762 187.181 62.2155 187.139L62.1524 189.636L62.0892 192.132C62.8395 192.151 63.3317 192.352 63.6898 192.624C64.0638 192.91 64.459 193.403 64.7835 194.264L67.1206 193.384ZM62.1524 189.636L62.2177 187.139L57.556 187.017L57.4907 189.514L57.4254 192.01L62.087 192.132L62.1524 189.636ZM57.4907 189.514L57.5613 187.017C56.5759 186.989 56.3467 186.802 56.279 186.735L54.5293 188.517L52.7795 190.3C54.203 191.697 56.0085 191.97 57.4201 192.01L57.4907 189.514ZM54.5293 188.517L56.2785 186.735C56.1955 186.653 55.9537 186.285 55.9537 185.257H53.4562H50.9586C50.9586 186.791 51.2743 188.823 52.78 190.3L54.5293 188.517ZM53.4562 185.257H55.9537C55.9537 184.244 56.3046 183.605 56.7004 183.24C57.0964 182.876 57.728 182.608 58.6351 182.694L58.8704 180.208L59.1057 177.721C56.9328 177.516 54.8574 178.147 53.3163 179.566C51.7749 180.986 50.9586 183.018 50.9586 185.257H53.4562ZM58.8704 180.208L58.6357 182.694C61.6943 182.983 64.6153 183.733 67.7841 184.642L68.4724 182.241L69.1608 179.84C65.9468 178.919 62.6522 178.056 59.1051 177.721L58.8704 180.208ZM68.4724 182.241L67.7844 184.642C72.8752 186.101 77.4505 186.427 81.8382 185.338C86.2181 184.25 90.1619 181.813 94.0973 178.171L92.4009 176.338L90.7045 174.505C87.1701 177.776 83.9507 179.666 80.6343 180.49C77.3257 181.312 73.6717 181.133 69.1605 179.84L68.4724 182.241ZM92.4009 176.338L94.0982 178.17C99.2262 173.42 102.881 167.765 105.77 161.598L103.508 160.539L101.246 159.479C98.5469 165.241 95.2334 170.309 90.7036 174.505L92.4009 176.338ZM103.508 160.539L105.77 161.599C107.599 157.695 109.577 154.483 112.362 151.278L110.476 149.64L108.591 148.002C105.452 151.615 103.236 155.235 101.247 159.479L103.508 160.539ZM110.476 149.64L112.362 151.278C116.437 146.587 118.853 140.832 119.007 134.416L116.511 134.356L114.014 134.296C113.889 139.47 111.957 144.126 108.591 148.002L110.476 149.64ZM116.511 134.356L119.007 134.417C119.109 130.264 120.793 127.019 124.11 125.238L122.928 123.037L121.747 120.837C116.506 123.651 114.149 128.77 114.014 134.295L116.511 134.356ZM122.928 123.037L124.109 125.238C128.465 122.901 130.893 119.753 132.914 116.625C134.973 113.438 136.461 110.583 139.154 107.824L137.366 106.079L135.579 104.335C132.425 107.567 130.509 111.144 128.718 113.914C126.889 116.745 125.021 119.08 121.747 120.836L122.928 123.037ZM137.366 106.079L139.153 107.824C141.94 104.971 145.271 102.972 148.624 100.999C151.817 99.121 155.322 97.1242 157.586 94.3457L155.65 92.7677L153.714 91.1898C152.14 93.1219 149.555 94.6563 146.091 96.6939C142.787 98.6374 138.896 100.939 135.579 104.334L137.366 106.079ZM155.65 92.7677L157.586 94.3464C160.144 91.2094 161.575 86.809 159.695 82.5033L157.406 83.5025L155.117 84.5018C156.025 86.5807 155.491 89.0123 153.715 91.1891L155.65 92.7677ZM157.406 83.5025L159.695 82.5021C158.407 79.5574 156.106 77.6248 154.067 76.1096L152.577 78.1142L151.088 80.1188C153.007 81.5451 154.384 82.8252 155.118 84.5029L157.406 83.5025ZM152.577 78.1142L154.935 78.9375C154.847 79.1908 154.66 79.2555 154.888 79.1151C155.051 79.0144 155.141 78.9726 155.459 78.7926C155.708 78.652 156.08 78.4331 156.443 78.1272L154.835 76.2164L153.227 74.3057C153.228 74.3047 153.184 74.3408 153 74.4449C152.886 74.5095 152.527 74.702 152.264 74.8647C151.637 75.2513 150.684 75.96 150.219 77.2909L152.577 78.1142ZM154.835 76.2164L156.448 78.1236C159.298 75.7138 161.474 72.9601 163.581 70.0284L161.552 68.5711L159.524 67.1138C157.491 69.9432 155.599 72.2999 153.222 74.3093L154.835 76.2164ZM161.552 68.5711L163.579 70.0311C166.058 66.5901 170.055 65.2439 173.228 66.9591L174.415 64.762L175.603 62.5649C169.523 59.2781 162.956 62.351 159.526 67.1111L161.552 68.5711ZM174.415 64.762L173.227 66.9585C175.749 68.3233 177.032 71.8356 176.109 74.7774L178.492 75.5251L180.875 76.2727C182.419 71.3524 180.496 65.2131 175.604 62.5655L174.415 64.762ZM178.492 75.5251L176.11 74.7746C175.425 76.9494 173.374 77.6126 172.033 76.8949L170.855 79.097L169.676 81.2991C174.314 83.7805 179.441 80.8244 180.874 76.2756L178.492 75.5251ZM170.855 79.097L172.032 76.8942C171.136 76.4156 170.497 74.8987 170.833 73.6056L168.416 72.9766L165.999 72.3476C165.207 75.3924 166.337 79.5146 169.678 81.2998L170.855 79.097ZM168.416 72.9766L170.831 73.6145C171.054 72.7685 171.487 72.3665 172.228 72.1252L171.454 69.7504L170.681 67.3757C168.425 68.1104 166.684 69.7552 166.001 72.3388L168.416 72.9766ZM171.454 69.7504L172.198 67.3664C170.519 66.8422 168.939 67.2474 167.747 68.0322C166.597 68.7897 165.752 69.921 165.273 71.1021L167.587 72.0413L169.901 72.9805C170.049 72.6163 170.291 72.3378 170.494 72.2041C170.585 72.1441 170.641 72.1305 170.657 72.1277C170.665 72.1264 170.675 72.1235 170.71 72.1345L171.454 69.7504ZM167.587 72.0413L165.276 71.0936C163.793 74.7086 165.113 78.314 167.376 80.6462L169.169 78.9072L170.961 77.1682C169.726 75.8946 169.345 74.3353 169.898 72.989L167.587 72.0413ZM169.169 78.9072L167.378 80.6483C169.633 82.9678 173.489 83.9833 176.855 82.4921L175.844 80.2085L174.833 77.9249C173.517 78.5077 171.867 78.0999 170.959 77.166L169.169 78.9072ZM175.844 80.2085L176.855 82.4922C182.263 80.0978 183.595 73.9922 182.126 69.2192L179.739 69.9538L177.352 70.6883C178.336 73.886 177.201 76.8762 174.833 77.9248L175.844 80.2085ZM179.739 69.9538L182.127 69.2213C179.965 62.1743 173.263 58.3171 166.2 60.5282L166.946 62.9117L167.692 65.2952C171.931 63.9682 175.945 66.1026 177.351 70.6862L179.739 69.9538ZM166.946 62.9117L166.198 60.5288C162.407 61.7187 159.78 64.4691 157.6 66.9495L159.476 68.5982L161.352 70.2469C163.52 67.7795 165.352 66.0295 167.694 65.2946L166.946 62.9117ZM159.476 68.5982L157.599 66.9509L154.512 70.4685L156.389 72.1159L158.266 73.7632L161.353 70.2455L159.476 68.5982ZM156.389 72.1159L154.511 70.4695C152.394 72.8845 149.568 73.991 146.218 74.1557L146.341 76.6502L146.464 79.1447C150.834 78.9299 155.061 77.4201 158.267 73.7622L156.389 72.1159ZM146.341 76.6502L146.222 74.1555C141.264 74.3912 136.436 74.0372 131.611 73.6946C126.846 73.3563 122.039 73.0247 117.406 73.3947L117.605 75.8843L117.803 78.3739C121.998 78.039 126.428 78.3343 131.258 78.6772C136.028 79.0158 141.154 79.3972 146.46 79.1449L146.341 76.6502ZM117.605 75.8843L117.413 73.3941C116.036 73.5002 114.92 74.144 114.115 74.751L115.619 76.7451L117.122 78.7392C117.558 78.4108 117.765 78.3769 117.796 78.3745L117.605 75.8843ZM115.619 76.7451L114.127 74.742L97.4174 87.186L98.9091 89.1891L100.401 91.1922L117.11 78.7482L115.619 76.7451ZM98.9091 89.1891L97.4185 87.1851C94.4216 89.4143 91.2684 90.6762 87.5363 91.9914L88.3664 94.347L89.1965 96.7025C93.0038 95.3608 96.763 93.8981 100.4 91.1931L98.9091 89.1891ZM88.3664 94.347L87.537 91.9911C86.3726 92.4011 85.3651 93.2444 84.6219 93.911C84.2194 94.2721 83.8033 94.6685 83.4106 95.0401C83.007 95.422 82.6116 95.7935 82.2027 96.1547C80.5236 97.6381 78.962 98.6209 77.1998 98.6973L77.308 101.193L77.4161 103.688C80.9706 103.534 83.6387 101.551 85.5098 99.8982C85.9885 99.4753 86.4382 99.052 86.8436 98.6685C87.2599 98.2746 87.6167 97.9349 87.9574 97.6294C88.7006 96.9627 89.0606 96.7504 89.1957 96.7028L88.3664 94.347ZM77.308 101.193L77.1974 98.6974C76.6408 98.7221 75.9381 98.4239 74.5794 97.553C74.006 97.1854 73.2506 96.6784 72.5134 96.2812C71.7607 95.8757 70.8041 95.4552 69.709 95.3401L69.448 97.824L69.187 100.308C69.3496 100.325 69.6412 100.408 70.144 100.679C70.6624 100.958 71.1699 101.301 71.8838 101.758C73.0999 102.538 75.0695 103.792 77.4186 103.688L77.308 101.193ZM69.448 97.824L69.7077 95.34L64.3284 94.7774L64.0686 97.2614L63.8088 99.7454L69.1882 100.308L69.448 97.824ZM64.0686 97.2614L64.3278 94.7774C59.5507 94.2788 55.2873 93.0526 51.1811 90.6412L49.9164 92.7949L48.6516 94.9485C53.4785 97.7831 58.4548 99.1867 63.8093 99.7455L64.0686 97.2614ZM49.9164 92.7949L51.1802 90.6407L39.188 83.6053L37.9243 85.7595L36.6605 87.9137L48.6526 94.9491L49.9164 92.7949ZM37.9243 85.7595L39.1882 83.6054C32.3406 79.5873 25.1661 79.447 18.9435 79.6611C15.7444 79.7711 12.9364 79.9677 10.2501 79.8908C7.60599 79.8152 5.37619 79.4721 3.48529 78.6313L2.47054 80.9134L1.45579 83.1955C4.19868 84.4152 7.1697 84.7999 10.1072 84.8839C13.0027 84.9667 16.1572 84.755 19.1152 84.6532C25.207 84.4437 31.1256 84.6659 36.6603 87.9136L37.9243 85.7595ZM2.47054 80.9134L3.48678 78.632C3.56338 78.6661 3.61526 78.7137 3.65349 78.7719C3.69209 78.8307 3.75611 78.9643 3.74509 79.1697L1.25112 79.036L-1.24284 78.9022C-1.34681 80.8404 -0.116688 82.4951 1.4543 83.1949L2.47054 80.9134ZM1.25112 79.036L3.74461 79.1784C3.72351 79.5478 3.59649 79.7862 3.54289 79.8739C3.5114 79.9255 3.48495 79.9585 3.47037 79.9754C3.45539 79.9928 3.44649 80.0007 3.44561 80.0015C3.4445 80.0025 3.44713 80.0001 3.45306 79.996C3.45894 79.9919 3.46448 79.9887 3.46825 79.9867C3.48167 79.9796 3.45982 79.9942 3.39318 80.0083L2.87469 77.5652L2.3562 75.1221C1.49056 75.3058 0.711786 75.7496 0.13146 76.2642C-0.378878 76.7167 -1.16939 77.6159 -1.24236 78.8936L1.25112 79.036ZM2.87469 77.5652L3.38907 80.0092C6.71542 79.3091 10.6576 78.7611 14.3216 77.6178L13.5777 75.2336L12.8338 72.8495C9.46001 73.9022 6.18323 74.3166 2.36031 75.1212L2.87469 77.5652ZM13.5777 75.2336L14.3152 77.6198C15.4557 77.2673 16.5288 76.625 17.2866 75.5577C18.0376 74.4999 18.3011 73.2744 18.291 72.0745L15.7936 72.0955L13.2961 72.1166C13.298 72.3444 13.2733 72.4878 13.2516 72.5681C13.241 72.6075 13.231 72.6321 13.2248 72.6455C13.2188 72.6586 13.2147 72.6644 13.2135 72.6661C13.2124 72.6677 13.2104 72.6704 13.2055 72.6751C13.2004 72.68 13.1884 72.6908 13.1655 72.7061C13.1193 72.737 13.0209 72.7916 12.8402 72.8475L13.5777 75.2336ZM15.7936 72.0955L18.291 72.074C18.2404 66.2131 14.2729 60.9928 11.0259 57.3737L9.16689 59.0415L7.30786 60.7094C10.5552 64.3289 13.2631 68.2994 13.2961 72.1171L15.7936 72.0955ZM9.16689 59.0415L11.0264 57.3742C10.1317 56.3764 9.0273 55.66 7.66289 55.5122C6.40469 55.3759 5.30333 55.7747 4.52572 56.1181C2.70078 56.9241 1.79501 57.6657 -0.0568094 58.0825L0.491598 60.5191L1.04001 62.9557C3.49447 62.4033 5.7139 61.0539 6.54381 60.6874C7.09362 60.4445 7.2021 60.4866 7.12499 60.4783C6.94168 60.4584 6.98967 60.3545 7.3074 60.7089L9.16689 59.0415ZM0.491598 60.5191L-0.0520868 58.0814C0.668944 57.9206 1.51265 58.1523 2.06068 58.7924C2.45442 59.2524 2.49104 59.6882 2.49395 59.7163C2.50612 59.8337 2.47524 59.6586 2.64162 59.1926C2.94689 58.3377 3.69375 57.1413 5.03335 56.2419L3.64118 54.1683L2.24901 52.0948C-0.0557097 53.6421 -1.43063 55.7431 -2.06258 57.5129C-2.3648 58.3593 -2.56814 59.3283 -2.47453 60.2313C-2.4309 60.6522 -2.29008 61.3911 -1.73395 62.0408C-1.02353 62.8707 0.0407545 63.1786 1.03528 62.9568L0.491598 60.5191ZM3.64118 54.1683L5.03165 56.243C6.7128 55.1163 8.12483 54.378 9.25301 54.1646C9.77158 54.0665 10.1325 54.1001 10.3971 54.1872C10.6451 54.2689 10.9655 54.4482 11.3382 54.9078L13.2781 53.3347L15.2179 51.7615C14.3155 50.6487 13.2222 49.8587 11.9599 49.4429C10.7141 49.0325 9.46805 49.0403 8.32473 49.2565C6.12913 49.6717 3.99787 50.9227 2.25071 52.0936L3.64118 54.1683ZM13.2781 53.3347L15.4318 54.5993C16.4678 52.835 17.6736 51.1391 18.88 50.0871C20.119 49.0067 20.697 49.1164 21.0019 49.261L22.0718 47.0042L23.1417 44.7474C20.1298 43.3195 17.3875 44.7611 15.5971 46.3223C13.7741 47.912 12.2415 50.1675 11.1244 52.07L13.2781 53.3347ZM22.0718 47.0042L20.9998 49.26C22.3467 49.9001 23.1055 51.1737 24.343 53.9027C25.5005 56.4551 26.9507 59.9043 30.023 63.1137L31.8272 61.3867L33.6313 59.6596C31.2406 57.1621 30.1022 54.5079 28.8922 51.8397C27.7624 49.3482 26.375 46.284 23.1439 44.7484L22.0718 47.0042ZM31.8272 61.3867L30.0197 63.1102C29.9679 63.0559 29.9612 63.0346 29.987 63.078C30.0105 63.1174 30.0453 63.1842 30.0871 63.2817C30.1725 63.4812 30.248 63.7174 30.3055 63.9334L32.7191 63.2912L35.1326 62.649C35.0368 62.2889 34.8893 61.8067 34.6787 61.3148C34.4827 60.8575 34.1573 60.2112 33.6347 59.6631L31.8272 61.3867ZM32.7191 63.2912L30.3102 63.9507L31.9059 69.7795L34.3148 69.1201L36.7237 68.4606L35.128 62.6317L32.7191 63.2912ZM34.3148 69.1201L31.9063 69.781C32.6803 72.602 34.6046 74.579 37.3157 75.4387L38.0706 73.058L38.8255 70.6773C37.732 70.3305 37.0502 69.6506 36.7233 68.4592L34.3148 69.1201ZM38.0706 73.058L37.3177 75.4394C43.9792 77.5454 50.6687 78.5631 57.4037 79.3479L57.6928 76.8671L57.9818 74.3863C51.3381 73.6122 45.0251 72.6372 38.8235 70.6766L38.0706 73.058ZM57.6928 76.8671L57.4041 79.3479L70.8595 80.9136L71.1482 78.4328L71.4369 75.9519L57.9814 74.3863L57.6928 76.8671ZM71.1482 78.4328L70.8597 80.9136C74.5865 81.3469 77.5748 80.7589 80.3059 79.3223C82.92 77.9473 85.1856 75.8439 87.5352 73.5618L85.7951 71.7702L84.055 69.9786C81.6664 72.2986 79.873 73.9061 77.9805 74.9015C76.205 75.8354 74.2389 76.2777 71.4366 75.9519L71.1482 78.4328ZM85.7951 71.7702L88.0013 72.941C89.1487 70.7789 89.965 68.8353 90.282 67.1946L87.8298 66.7208L85.3776 66.2469C85.2022 67.1547 84.6621 68.5774 83.589 70.5994L85.7951 71.7702ZM87.8298 66.7208L90.0698 67.8254L91.2196 65.4938L88.9796 64.3892L86.7395 63.2846L85.5898 65.6162L87.8298 66.7208ZM88.9796 64.3892L87.7915 62.1923L83.9939 64.246L85.1819 66.4429L86.37 68.6398L90.1676 66.5861L88.9796 64.3892ZM85.1819 66.4429L83.9943 64.2458C79.671 66.5828 75.9121 68.6727 71.5659 69.7609L72.1725 72.1836L72.7791 74.6064C77.8537 73.3359 82.1918 70.8983 86.3696 68.64L85.1819 66.4429ZM72.1725 72.1836L71.5618 69.7619C69.0022 70.4074 67.1114 70.7876 65.4612 70.288L64.7375 72.6784L64.0139 75.0688C67.1995 76.0332 70.4512 75.1935 72.7832 74.6054L72.1725 72.1836ZM64.7375 72.6784L65.4645 70.289C65.5951 70.3288 65.4771 70.3697 65.292 69.9696C65.1122 69.5806 65.0186 69.0637 65.0319 68.6435L62.5356 68.5643L60.0393 68.4852C60.0039 69.6035 60.2204 70.903 60.7582 72.0661C61.2909 73.2181 62.2982 74.5469 64.0106 75.0678L64.7375 72.6784ZM62.5356 68.5643L65.0319 68.6433L65.2131 62.9161L62.7168 62.8371L60.2205 62.7581L60.0393 68.4854L62.5356 68.5643ZM62.7168 62.8371L65.2131 62.9141C65.3046 59.947 64.9244 56.7737 62.8093 53.911L60.8005 55.3951L58.7918 56.8792C59.9517 58.4492 60.2961 60.305 60.2204 62.7601L62.7168 62.8371ZM60.8005 55.3951L63.286 55.6404C63.3716 54.7735 63.4502 53.6336 63.2587 52.5677L60.8005 53.0093L58.3424 53.451C58.4017 53.7813 58.3967 54.3223 58.3151 55.1498L60.8005 55.3951ZM60.8005 53.0093L61.7095 50.683L58.4136 49.3953L57.5046 51.7215L56.5957 54.0478L59.8916 55.3356L60.8005 53.0093ZM57.5046 51.7215L58.4102 49.394C58.2697 49.3393 58.1342 49.2777 58.0181 49.213C57.8973 49.1455 57.8396 49.098 57.8259 49.0852C57.812 49.0722 57.895 49.1436 57.9658 49.3172C58.0026 49.4073 58.0312 49.5135 58.0424 49.63C58.0536 49.7467 58.045 49.849 58.0289 49.9284L55.5814 49.4307L53.134 48.933C52.7804 50.6718 53.6124 51.9858 54.4188 52.738C55.1653 53.4343 56.0546 53.8373 56.599 54.0491L57.5046 51.7215ZM55.5814 49.4307L58.0292 49.9268C58.3025 48.5784 59.0304 48.046 60.799 46.566C62.5725 45.0819 64.6779 43.0518 65.33 38.929L62.8631 38.5388L60.3962 38.1486C60.017 40.546 58.9624 41.5896 57.5933 42.7352C56.2193 43.885 53.822 45.5385 53.1337 48.9345L55.5814 49.4307ZM62.8631 38.5388L65.3298 38.9299C65.9271 35.1629 67.4349 31.6292 69.6071 28.4538L67.5457 27.0437L65.4843 25.6336C62.946 29.3443 61.1231 33.5644 60.3964 38.1477L62.8631 38.5388ZM67.5457 27.0437L70.0395 27.1799L70.3531 21.4391L67.8592 21.3029L65.3654 21.1667L65.0518 26.9075L67.5457 27.0437ZM67.8592 21.3029L70.3532 21.4374C70.6654 15.6484 72.8721 10.7279 75.2304 7.47831C76.4168 5.84338 77.571 4.72912 78.4336 4.1413C78.8738 3.84131 79.1249 3.75608 79.1817 3.7427C79.2469 3.72734 78.7918 3.85071 78.2679 3.46851L79.7399 1.4508L81.2118 -0.566902C80.1235 -1.36086 78.8951 -1.32157 78.0366 -1.11938C77.1698 -0.915212 76.3467 -0.481249 75.6206 0.0135597C74.1506 1.01534 72.6037 2.59312 71.1876 4.54448C68.3407 8.46746 65.736 14.2965 65.3653 21.1684L67.8592 21.3029ZM79.7399 1.4508L78.2468 3.45294C78.0264 3.2886 77.7993 3.03565 77.6644 2.67402C77.5137 2.26976 77.5291 1.86042 77.6388 1.54501L79.9977 2.3658L82.3565 3.18659C82.945 1.49533 82.1115 0.103824 81.2329 -0.551337L79.7399 1.4508ZM79.9977 2.3658L77.6356 1.55456L75.4963 7.78333L77.8585 8.59458L80.2206 9.40582L82.3598 3.17705L79.9977 2.3658ZM77.8585 8.59458L75.3992 8.1592C74.5478 12.9685 75.4602 17.7652 76.2573 22.2051L78.7155 21.7638L81.1738 21.3225C80.3404 16.6802 79.6501 12.8013 80.3178 9.02995L77.8585 8.59458ZM78.7155 21.7638L79.8454 23.9911C87.6937 20.0099 95.419 19.6521 102.215 24.5848L103.682 22.5636L105.149 20.5423C96.4066 14.1968 86.5723 14.9777 77.5857 19.5364L78.7155 21.7638ZM103.682 22.5636L102.216 24.5856C104.029 25.8996 106.025 28.548 107.719 31.7609C109.391 34.9323 110.584 38.3031 110.986 40.7819L113.452 40.3823L115.917 39.9828C115.406 36.8293 113.986 32.9376 112.138 29.4313C110.311 25.9664 107.879 22.5216 105.148 20.5416L103.682 22.5636ZM21.1172 65.3449L23.5834 64.9506C23.2208 62.6829 22.6691 60.547 22.2828 58.7669C21.881 56.9158 21.6136 55.2808 21.6492 53.5906L19.1522 53.538L16.6552 53.4854C16.6072 55.7669 16.9738 57.8564 17.4013 59.8262C17.8442 61.8671 18.3167 63.6488 18.651 65.7392L21.1172 65.3449ZM19.1522 53.538L17.9648 51.3407C16.2682 52.2576 15.2086 52.69 13.5655 53.374L14.5254 55.6798L15.4852 57.9855C17.131 57.3004 18.3988 56.784 20.3395 55.7352L19.1522 53.538ZM14.5254 55.6798L12.6803 57.3631C15.3503 60.2895 17.2055 63.2241 18.8996 66.4939L21.1172 65.3449L23.3347 64.1959C21.5031 60.6607 19.4143 57.3327 16.3704 53.9964L14.5254 55.6798Z" fill="#FF6443" mask="url(#path-1-inside-1_1155_17481)"/>
<path d="M261.219 15.1146C263.875 14.1507 266.708 14.1249 269.176 14.9027C271.27 15.5625 272.586 17.0399 272.976 19.3256L273.042 19.7933C273.084 20.1788 273.183 20.5455 273.274 20.851C273.38 21.2072 273.453 21.4132 273.536 21.7113C273.684 22.2478 273.706 22.5808 273.621 22.8558C273.454 23.3909 272.696 23.8961 271.802 23.8763L265.308 23.7347H264.746C261.927 23.8073 259.1 24.9228 257.294 27.6322L255.207 30.765L258.752 29.5004C259.458 29.2488 260.129 28.9655 260.759 28.6947C261.4 28.4192 261.987 28.1615 262.576 27.9349C263.744 27.4853 264.805 27.2044 265.922 27.2406H265.923L274.515 27.516C276.301 27.7689 278.394 28.1449 280.025 28.7787C280.851 29.0999 281.472 29.4545 281.868 29.8246C282.24 30.173 282.365 30.4826 282.365 30.7953V30.7982C282.365 30.842 282.383 30.8109 282.346 30.8344C282.23 30.9082 281.94 31.0128 281.393 31.0414C280.32 31.0974 278.792 30.838 277.232 30.3627H277.231C275.461 29.8256 273.329 29.0953 271.329 28.8461C269.298 28.5931 267.115 28.7932 265.382 30.3871L265.38 30.389C263.466 32.1581 261.87 34.2133 260.892 36.8246L257 37.8676L256.998 37.8685C255.283 38.3311 254.134 40.1404 254.576 41.9623V41.9633C254.964 43.5706 255.926 45.0509 256.959 46.348C257.989 47.641 259.22 48.9049 260.187 49.9711C261.22 51.11 261.91 51.9839 262.179 52.6683C262.301 52.9787 262.292 53.1425 262.272 53.222C262.258 53.2791 262.212 53.4033 262.002 53.5804L261.903 53.6595C260.984 54.34 259.615 54.1056 258.425 52.8041C258.095 52.4425 257.776 52.0653 257.436 51.6664C257.102 51.2745 256.75 50.8626 256.379 50.4672C255.638 49.6762 254.769 48.8908 253.668 48.3451L252.855 47.9418L252.221 48.5912L247.288 53.641L247.272 53.6566L247.258 53.6722L240.578 60.9945L221.739 79.9008C220.983 75.5914 219.451 71.5595 217 68.0023C217.787 67.4336 218.691 67.1037 219.861 66.5463L219.862 66.5472C223.725 64.7123 228.425 61.2541 232.815 57.4535C237.219 53.6406 241.4 49.4059 244.221 45.9496L244.223 45.9486C244.395 45.7376 244.569 45.6585 244.798 45.64C245.077 45.6176 245.479 45.6874 246.012 45.9095C247.041 46.3379 248.2 47.1784 249.255 48.058L249.272 48.0765L249.325 48.1342L249.342 48.1478C249.354 48.1612 249.376 48.1865 249.412 48.2289C249.481 48.3105 249.623 48.4788 249.811 48.6283C250 48.7785 250.328 48.9872 250.778 49.0199C251.264 49.0551 251.682 48.8712 251.997 48.6136L252.454 48.2386V47.6478C252.454 47.6032 252.449 47.5596 252.446 47.517L252.473 47.5043L252.443 47.4789C252.398 47.0686 252.196 46.7579 252.021 46.5658C251.817 46.3412 251.571 46.1831 251.336 46.0795C251.163 46.0027 250.929 45.9323 250.667 45.9076L247.361 42.3451L247.339 42.3217L247.316 42.2992C246.221 41.2346 244.98 40.0531 244.15 38.9379C243.734 38.3789 243.494 37.9295 243.403 37.599C243.324 37.3145 243.382 37.2438 243.402 37.2181C244.068 36.3503 244.871 35.6737 245.788 34.9789C246.67 34.3096 247.733 33.5718 248.683 32.6879L247.31 30.64C245.885 31.2954 244.03 32.01 242.546 33.2992L242.543 33.3011C236.575 38.5213 229.659 41.6322 221.995 42.7103H221.994C214.064 43.8302 206.731 42.1807 200.583 37.0746L199.991 36.5697C198.321 35.1012 196.749 33.9047 195.471 32.349L200.714 31.9066H200.715C205.495 31.4994 210.036 31.2628 214.347 32.5004H214.348L219.999 34.1195C221.408 34.5247 223.076 34.4418 224.754 34.1234C226.455 33.8008 228.286 33.2134 230.083 32.4984C233.676 31.0694 237.265 29.0804 239.627 27.4808L239.626 27.4799L248.149 21.7133L248.15 21.7123C252.236 18.9436 256.573 16.8052 261.219 15.1146ZM250.731 48.3441C250.624 48.3865 250.533 48.3948 250.479 48.3939C250.404 48.3927 250.356 48.3761 250.328 48.3636C250.302 48.3524 250.242 48.3225 250.172 48.2455C250.109 48.1755 249.956 47.9729 249.956 47.6478H250.392L250.731 48.3441Z" stroke="#FF6443" stroke-width="2.49755"/>
<path d="M260.881 33.5323C263.247 32.8448 265.482 32.9439 267.402 34.2013L267.403 34.2023C269.195 35.3734 270.415 37.0936 270.895 39.0011L265.053 37.0558L264.332 36.8156L264.304 36.8419C261.371 36.0584 258.78 36.4898 256.833 36.9064C255.723 37.1439 254.96 37.3396 254.328 37.3966C254.189 37.4091 254.077 37.4119 253.987 37.4093C253.992 37.4056 253.995 37.4013 254 37.3976C256.083 35.6951 258.496 34.2253 260.881 33.5323Z" stroke="#FF6443" stroke-width="2.49755"/>
<path d="M84.3232 13.9725C84.4917 15.5759 84.6285 17.0628 84.5645 18.5253C83.6339 18.6816 82.6765 18.9569 81.71 19.2987L83.8252 14.5604C83.9903 14.3362 84.1554 14.1407 84.3232 13.9725Z" stroke="#FF6443" stroke-width="2.49755"/>
<path d="M188.579 2.10645C189.462 3.04954 190.271 4.0152 191.044 5.0791L190.964 5.08887V5.08496L189.573 5.24609C189.082 5.30268 188.755 5.17273 188.621 5.08105C188.619 5.07597 188.616 5.07047 188.614 5.06445C188.58 4.97656 188.541 4.83595 188.506 4.64062C188.438 4.2507 188.407 3.74027 188.435 3.19922C188.455 2.81733 188.504 2.44397 188.579 2.10645Z" stroke="#FF6443" stroke-width="2.49755"/>
</svg>
