<svg width="90" height="66" viewBox="0 0 90 66" fill="none" xmlns="http://www.w3.org/2000/svg">
<mask id="path-1-inside-1_1154_16767" fill="white">
<path d="M36.695 11.9656L37.758 10.1083C38.5823 8.66811 39.8265 7.68146 41.2718 6.99145C42.6066 6.35517 43.9834 6.17031 45.4398 6.10582L47.9569 5.99404L50.3591 4.89776C54.0386 3.35866 57.8243 2.4021 61.7911 2.06032C63.59 1.90555 65.3204 2.19789 67.0905 2.64716C70.2927 3.45969 73.3314 4.57532 76.3944 5.83282L78.0319 6.64321L74.4651 8.68101C73.654 9.14317 72.8209 9.46776 71.9413 9.7515C71.4375 9.91272 70.9513 9.79234 70.4342 9.70421C68.3767 9.35383 66.3502 9.13887 64.295 9.26999L62.2662 9.53439C56.9138 10.2309 53.3911 13.754 48.7392 15.8821C46.6641 16.8322 43.7094 17.5136 41.5083 16.8451C43.4287 18.195 46.8762 17.4857 49.0221 16.3915C51.6784 15.0373 54.5182 12.7652 56.5359 11.9075C57.0044 11.7098 57.5546 11.7914 57.9922 12.1418C60.9977 14.5493 63.6541 17.3868 65.9679 20.609L63.9789 20.6713C63.6673 20.6821 63.3027 20.7681 63.0463 21.0497C64.2154 20.7552 65.4419 20.7229 66.6043 21.213C68.9933 22.219 69.9458 25.4391 69.5237 28.0745C69.148 30.4089 67.5767 32.3629 65.5193 33.313C63.1082 34.4243 64.0276 36.2923 62.611 38.5558C61.3469 40.5742 59.6673 42.1026 57.7646 43.4353C56.748 44.1468 55.3337 45.3033 55.937 46.2427C56.516 47.1412 58.7414 46.5264 60.843 47.3046C63.4264 48.2611 65.0176 50.4752 67.5259 51.3974C69.4485 52.1024 70.2507 53.5362 71.7734 53.6394L74.6242 53.835C76.0054 53.9296 77.738 54.439 77.9678 55.7545C78.0783 56.3822 77.8065 56.9948 77.3358 57.4935C75.7049 59.224 73.4109 59.6754 72.2485 61.5519L70.717 64.0261C70.432 64.4861 70.0121 65.0794 69.4552 65.1374L64.7922 65.6189C63.59 65.7436 62.348 65.447 61.5149 64.5334C60.7723 63.7209 59.9414 63.1469 58.832 63.018C58.2662 62.9513 57.7955 62.573 57.8154 61.9066C57.8265 61.5218 57.8508 61.036 58.1513 60.7673C58.801 60.1913 61.0309 61.2832 63.2585 61.1371C64.1115 61.0812 64.8275 60.6878 65.4353 60.1031C66.3038 59.2669 67.5789 57.8934 67.3402 57.0593C67.2673 56.8057 66.9712 56.5628 66.6176 56.5176C64.6729 56.2704 62.8474 55.8083 60.9977 55.1398L58.7834 54.5142C56.9182 53.9876 55.1414 53.3492 53.4044 52.4163C51.137 51.1996 49.4066 51.7542 48.1049 50.4773C47.0486 49.4391 47.4066 47.3798 48.0696 45.8815L49.9547 41.6254C51.3646 38.4419 52.9513 35.4217 54.8541 32.5176C55.9546 30.8367 57.2121 29.4008 58.4696 27.8208C56.0651 29.5663 53.4397 33.7644 52.0696 36.5008L50.0674 40.499L44.5867 44.2715C42.4586 45.7375 43.305 48.0763 42.2707 50.5655C41.5613 52.2722 40.4011 53.691 38.9425 54.7829L36.8718 56.3328C35.1901 57.5924 34.6354 59.4475 35.2011 61.4595C35.5193 62.588 34.6619 63.5639 33.6829 63.7617C31.6873 64.1637 29.5216 62.7342 26.6973 62.9857C24.5448 63.1792 22.2089 63.7746 21.2873 61.3327C21.0023 60.576 20.4763 60.1633 19.7117 60.144L18.2332 60.1053C17.8531 60.0945 17.5304 60.0214 17.294 59.7893C17.0421 59.5421 16.9537 59.1616 16.9537 58.7553C16.9537 57.7235 17.694 57.0615 18.6708 57.1539C19.7183 57.2528 20.7039 57.5086 21.7161 57.7988C24.7614 58.6715 26.9359 58.1191 29.305 55.9265C30.8365 54.5078 31.9415 52.8075 32.8276 50.9159C33.4332 49.624 34.0984 48.5406 35.0376 47.4593C36.2177 46.1008 36.9072 44.4499 36.9514 42.612C36.989 41.0772 37.6298 39.751 38.9867 39.0223C41.4066 37.7239 41.7116 35.5442 43.5657 33.644C45.5016 31.6621 48.1469 30.9162 49.3646 29.4223C50.0519 28.5796 50.3635 27.4962 49.9215 26.4838C49.6011 25.7508 49.0176 25.2413 48.39 24.7749C48.5094 24.4331 48.8762 24.3665 49.106 24.173C49.9348 23.4722 50.5801 22.6618 51.2364 21.7483C52.1734 20.4478 53.8486 19.747 55.316 20.5402C56.4917 21.1765 56.9999 22.707 56.6088 23.9537C56.2729 25.0199 55.1348 25.5939 54.1867 25.0866C53.5149 24.7276 53.2342 23.8334 53.4132 23.1455C53.5569 22.6017 53.9016 22.2771 54.3768 22.1223C53.8397 21.9546 53.3491 22.3588 53.1502 22.8489C52.8276 23.6356 53.0972 24.4546 53.6519 25.0264C54.1535 25.5423 55.0265 25.768 55.769 25.4391C57.0022 24.8931 57.3933 23.4507 57.0044 22.1868C56.4386 20.3425 54.7392 19.3923 52.9469 19.9534C51.9745 20.2586 51.2674 20.9723 50.5779 21.7569L49.5989 22.8725C48.7547 23.8355 47.6364 24.2504 46.4121 24.3106C43.1569 24.4653 40.0983 23.8441 37.2983 24.0677C37.0751 24.0849 36.8652 24.1923 36.6685 24.3407L31.3691 28.2873C30.3172 29.0697 29.221 29.5018 28.0254 29.9231C27.2011 30.2133 26.2045 32.0211 24.5183 32.0942C23.5967 32.135 22.8232 31.1097 22.0255 31.0258L20.3194 30.8474C18.7128 30.6798 17.2476 30.2627 15.831 29.4309L12.0277 27.1996C8.10064 24.8953 3.72275 26.9696 0.783533 25.6626C0.54707 25.5573 0.383534 25.3144 0.396794 25.0672C0.407844 24.8738 0.668616 24.6523 0.91171 24.6008C2.04541 24.3622 3.19016 24.2095 4.30618 23.8613C4.7791 23.7151 5.01336 23.3905 5.00894 22.8661C4.99568 21.3313 3.93712 19.8738 2.90728 18.726C2.13823 17.8683 1.52165 18.8872 0.155911 19.1946C-0.19105 19.272 -0.00099498 17.9564 1.1548 17.1804C2.24209 16.4517 3.40231 15.9186 4.21115 16.916C4.89402 15.7531 5.94816 14.4096 7.00009 14.9083C8.45202 15.5983 8.36141 17.6598 10.094 19.4697C10.2354 19.618 10.3283 19.891 10.3769 20.0738L10.883 21.9224C11.0575 22.5587 11.4708 22.98 12.0741 23.1713C14.1139 23.8162 16.1758 24.1322 18.2973 24.3794L22.5647 24.8759C24.6354 25.1167 25.7072 24.2224 27.21 22.7629C27.5621 22.0994 27.7772 21.5656 27.8553 21.1614L28.2199 20.422L27.0155 21.0733C25.6674 21.802 24.3835 22.52 22.8895 22.894C22.1139 23.0896 21.2984 23.2831 20.5315 23.0509C20.0299 22.8983 19.8177 22.2341 19.8332 21.7461L19.8907 19.9297C19.9172 19.0699 19.8023 18.2724 19.2829 17.5695C19.3094 17.3008 19.3227 17.0343 19.2829 16.8129L18.2376 16.4044C17.9614 16.297 17.5481 16.0691 17.6277 15.6779C17.9327 14.1732 19.61 14.2914 19.9371 12.2235C20.147 10.8994 20.6752 9.66982 21.4221 8.57783L21.5216 6.75714C21.7382 2.74174 24.5735 -0.0613081 25.2895 0.461038C25.3558 0.510479 25.4199 0.611509 25.3713 0.751231L24.6929 2.72669C24.452 4.08737 24.7061 5.4631 24.9647 6.90331C27.6343 5.54908 30.4188 5.36852 32.8829 7.15696C34.3238 8.20166 35.6917 11.0219 35.9812 12.8082M6.69733 20.7251C6.47633 19.3429 6.04761 18.2402 6.07413 16.9805C5.49733 17.2922 5.12827 17.4427 4.60673 17.6598C5.5128 18.6529 6.13821 19.646 6.69733 20.7251Z"/>
</mask>
<path d="M37.758 10.1083L37.0705 9.71486V9.71486L37.758 10.1083ZM41.2718 6.99145L40.931 6.27643L40.9305 6.27663L41.2718 6.99145ZM45.4398 6.10582L45.4748 6.89714L45.4749 6.89714L45.4398 6.10582ZM47.9569 5.99404L47.992 6.78536L48.1457 6.77854L48.2857 6.71465L47.9569 5.99404ZM50.3591 4.89776L50.0534 4.16701L50.0417 4.1719L50.0302 4.17715L50.3591 4.89776ZM61.7911 2.06032L61.7232 1.27114L61.7231 1.27115L61.7911 2.06032ZM67.0905 2.64716L66.8957 3.41491L66.8957 3.41492L67.0905 2.64716ZM76.3944 5.83282L76.7457 5.1229L76.7208 5.1106L76.6952 5.10007L76.3944 5.83282ZM78.0319 6.64321L78.4249 7.33098L79.7165 6.59306L78.3833 5.93329L78.0319 6.64321ZM74.4651 8.68101L74.8573 9.36922L74.858 9.36878L74.4651 8.68101ZM71.9413 9.7515L72.1827 10.5059L72.1845 10.5053L71.9413 9.7515ZM70.4342 9.70421L70.5672 8.92337L70.5671 8.92335L70.4342 9.70421ZM64.295 9.26999L64.2445 8.4795L64.2185 8.48116L64.1926 8.48454L64.295 9.26999ZM62.2662 9.53439L62.3684 10.3199L62.3686 10.3198L62.2662 9.53439ZM48.7392 15.8821L48.4097 15.1618L48.4094 15.1619L48.7392 15.8821ZM41.5083 16.8451L41.7385 16.0872L41.0528 17.4931L41.5083 16.8451ZM49.0221 16.3915L48.6623 15.6859L48.6623 15.6859L49.0221 16.3915ZM56.5359 11.9075L56.2278 11.1778L56.226 11.1786L56.5359 11.9075ZM57.9922 12.1418L58.4874 11.5236L58.4873 11.5235L57.9922 12.1418ZM65.9679 20.609L65.9927 21.4007L67.4781 21.3542L66.6113 20.147L65.9679 20.609ZM63.9789 20.6713L63.9541 19.8796L63.9516 19.8797L63.9789 20.6713ZM63.0463 21.0497L62.4606 20.5164L60.6915 22.4597L63.2398 21.8178L63.0463 21.0497ZM66.6043 21.213L66.2966 21.9429L66.2969 21.943L66.6043 21.213ZM69.5237 28.0745L70.3057 28.2003L70.3058 28.1997L69.5237 28.0745ZM65.5193 33.313L65.8508 34.0323L65.8513 34.0321L65.5193 33.313ZM62.611 38.5558L63.2823 38.9762L63.2824 38.976L62.611 38.5558ZM57.7646 43.4353L58.2188 44.0843L58.219 44.0841L57.7646 43.4353ZM55.937 46.2427L55.2705 46.6707L55.2711 46.6717L55.937 46.2427ZM60.843 47.3046L61.1181 46.5618L61.1181 46.5617L60.843 47.3046ZM67.5259 51.3974L67.2526 52.1408L67.2532 52.141L67.5259 51.3974ZM71.7734 53.6394L71.8276 52.8491L71.8269 52.8491L71.7734 53.6394ZM74.6242 53.835L74.57 54.6252L74.5701 54.6252L74.6242 53.835ZM77.9678 55.7545L77.1876 55.8909L77.1877 55.8919L77.9678 55.7545ZM77.3358 57.4935L76.7598 56.9498L76.7594 56.9503L77.3358 57.4935ZM72.2485 61.5519L71.5751 61.1348L71.575 61.135L72.2485 61.5519ZM70.717 64.0261L71.3903 64.4434L71.3905 64.443L70.717 64.0261ZM69.4552 65.1374L69.5365 65.9253L69.5373 65.9253L69.4552 65.1374ZM64.7922 65.6189L64.7108 64.831L64.7105 64.8311L64.7922 65.6189ZM61.5149 64.5334L62.1001 63.9997L62.0996 63.9991L61.5149 64.5334ZM58.832 63.018L58.7393 63.8046L58.7405 63.8048L58.832 63.018ZM57.8154 61.9066L58.6072 61.9303L58.6072 61.9294L57.8154 61.9066ZM58.1513 60.7673L57.6258 60.1747L57.6234 60.1768L58.1513 60.7673ZM63.2585 61.1371L63.2067 60.3467L63.2066 60.3467L63.2585 61.1371ZM65.4353 60.1031L65.9845 60.674L65.9847 60.6737L65.4353 60.1031ZM67.3402 57.0593L68.1018 56.8414L68.1015 56.8405L67.3402 57.0593ZM66.6176 56.5176L66.7179 55.7319L66.7175 55.7319L66.6176 56.5176ZM60.9977 55.1398L61.267 54.3948L61.2403 54.3852L61.2131 54.3775L60.9977 55.1398ZM58.7834 54.5142L58.9987 53.752L58.9986 53.7519L58.7834 54.5142ZM53.4044 52.4163L53.7792 51.7184L53.7789 51.7183L53.4044 52.4163ZM48.1049 50.4773L47.5497 51.0423L47.5503 51.0428L48.1049 50.4773ZM48.0696 45.8815L47.3453 45.5608L47.3452 45.561L48.0696 45.8815ZM49.9547 41.6254L50.6789 41.9462L50.6789 41.9462L49.9547 41.6254ZM54.8541 32.5176L55.5166 32.9517L55.5168 32.9515L54.8541 32.5176ZM58.4696 27.8208L59.0893 28.3141L58.0042 27.1798L58.4696 27.8208ZM52.0696 36.5008L52.7778 36.8555L52.7778 36.8554L52.0696 36.5008ZM50.0674 40.499L50.5165 41.1515L50.6844 41.0359L50.7756 40.8537L50.0674 40.499ZM44.5867 44.2715L44.1376 43.619L44.1374 43.6192L44.5867 44.2715ZM42.2707 50.5655L43.0021 50.8695L43.0022 50.8694L42.2707 50.5655ZM38.9425 54.7829L39.4172 55.4171L39.4173 55.417L38.9425 54.7829ZM36.8718 56.3328L36.3972 55.6986L36.397 55.6988L36.8718 56.3328ZM35.2011 61.4595L34.4386 61.6739L34.4387 61.6745L35.2011 61.4595ZM33.6829 63.7617L33.8393 64.5382L33.8397 64.5381L33.6829 63.7617ZM26.6973 62.9857L26.627 62.1967L26.6264 62.1968L26.6973 62.9857ZM21.2873 61.3327L20.5461 61.612L20.5463 61.6124L21.2873 61.3327ZM19.7117 60.144L19.6909 60.9358L19.6916 60.9358L19.7117 60.144ZM18.2332 60.1053L18.2108 60.8971L18.2125 60.8971L18.2332 60.1053ZM17.294 59.7893L17.8489 59.2241L17.8487 59.2239L17.294 59.7893ZM18.6708 57.1539L18.5962 57.9425L18.5963 57.9425L18.6708 57.1539ZM21.7161 57.7988L21.4978 58.5602L21.4979 58.5602L21.7161 57.7988ZM29.305 55.9265L29.843 56.5078L29.8433 56.5076L29.305 55.9265ZM32.8276 50.9159L32.1104 50.5797L32.1104 50.5798L32.8276 50.9159ZM35.0376 47.4593L34.4396 46.9399V46.9399L35.0376 47.4593ZM36.9514 42.612L36.1595 42.5927L36.1595 42.593L36.9514 42.612ZM38.9867 39.0223L38.6123 38.3243L38.612 38.3244L38.9867 39.0223ZM43.5657 33.644L42.9991 33.0905L42.9988 33.0908L43.5657 33.644ZM49.3646 29.4223L48.7508 28.9216L48.7506 28.9218L49.3646 29.4223ZM49.9215 26.4838L50.6475 26.1669L50.6473 26.1665L49.9215 26.4838ZM48.39 24.7749L47.6422 24.5138L47.4503 25.0634L47.9175 25.4106L48.39 24.7749ZM49.106 24.173L49.6161 24.779L49.6175 24.7778L49.106 24.173ZM51.2364 21.7483L50.5938 21.2852L50.5931 21.2861L51.2364 21.7483ZM55.316 20.5402L55.693 19.8436L55.6926 19.8434L55.316 20.5402ZM56.6088 23.9537L57.3643 24.1918L57.3646 24.1909L56.6088 23.9537ZM54.1867 25.0866L54.5604 24.3882L54.56 24.3879L54.1867 25.0866ZM53.4132 23.1455L52.6474 22.9432L52.6466 22.946L53.4132 23.1455ZM54.3768 22.1223L54.6221 22.8755L56.9833 22.1063L54.6128 21.3662L54.3768 22.1223ZM53.1502 22.8489L53.8831 23.1494L53.8842 23.1467L53.1502 22.8489ZM53.6519 25.0264L53.0834 25.5779L53.084 25.5786L53.6519 25.0264ZM55.769 25.4391L55.4483 24.7148L55.4482 24.7149L55.769 25.4391ZM57.0044 22.1868L56.2471 22.4191L56.2473 22.4198L57.0044 22.1868ZM52.9469 19.9534L52.7103 19.1975L52.7097 19.1976L52.9469 19.9534ZM50.5779 21.7569L49.9829 21.234L49.9825 21.2344L50.5779 21.7569ZM49.5989 22.8725L49.0035 22.35L49.0032 22.3504L49.5989 22.8725ZM46.4121 24.3106L46.4497 25.1018L46.451 25.1017L46.4121 24.3106ZM37.2983 24.0677L37.3592 24.8574L37.3614 24.8573L37.2983 24.0677ZM36.6685 24.3407L37.1416 24.976L37.1454 24.9731L36.6685 24.3407ZM31.3691 28.2873L31.8418 28.9228L31.8422 28.9226L31.3691 28.2873ZM28.0254 29.9231L28.2885 30.6703L28.2887 30.6702L28.0254 29.9231ZM24.5183 32.0942L24.484 31.3028L24.4832 31.3029L24.5183 32.0942ZM22.0255 31.0258L22.1082 30.2381L22.1078 30.238L22.0255 31.0258ZM20.3194 30.8474L20.4018 30.0596L20.4016 30.0596L20.3194 30.8474ZM15.831 29.4309L16.2321 28.7478L16.2318 28.7476L15.831 29.4309ZM12.0277 27.1996L11.6268 27.8828L11.6269 27.8828L12.0277 27.1996ZM0.783533 25.6626L0.461233 26.3862L0.461703 26.3864L0.783533 25.6626ZM0.396794 25.0672L-0.394021 25.022L-0.394168 25.0248L0.396794 25.0672ZM0.91171 24.6008L0.748575 23.8256L0.747271 23.8259L0.91171 24.6008ZM4.30618 23.8613L4.07227 23.1045L4.07024 23.1052L4.30618 23.8613ZM5.00894 22.8661L5.80101 22.8594L5.80101 22.8592L5.00894 22.8661ZM2.90728 18.726L2.31755 19.2548L2.31769 19.2549L2.90728 18.726ZM0.155911 19.1946L0.328341 19.9677L0.329839 19.9673L0.155911 19.1946ZM1.1548 17.1804L0.713815 16.5224L0.713275 16.5228L1.1548 17.1804ZM4.21115 16.916L3.59592 17.4149L4.31562 18.3024L4.89419 17.3171L4.21115 16.916ZM7.00009 14.9083L7.34009 14.1929L7.33941 14.1926L7.00009 14.9083ZM10.094 19.4697L10.6673 18.9231L10.6662 18.922L10.094 19.4697ZM10.3769 20.0738L9.61139 20.2774L9.61289 20.2829L10.3769 20.0738ZM10.883 21.9224L10.119 22.1315L10.1191 22.132L10.883 21.9224ZM12.0741 23.1713L11.8347 23.9263L11.8353 23.9265L12.0741 23.1713ZM18.2973 24.3794L18.2056 25.1661L18.2057 25.1661L18.2973 24.3794ZM22.5647 24.8759L22.4731 25.6627L22.4732 25.6627L22.5647 24.8759ZM27.21 22.7629L27.7619 23.3311L27.8512 23.2443L27.9097 23.1342L27.21 22.7629ZM27.8553 21.1614L27.1449 20.8111L27.0978 20.9066L27.0776 21.0112L27.8553 21.1614ZM28.2199 20.422L28.9303 20.7723L30.0298 18.5428L27.8431 19.7252L28.2199 20.422ZM27.0155 21.0733L27.3922 21.7701L27.3923 21.7701L27.0155 21.0733ZM22.8895 22.894L22.6972 22.1256L22.6959 22.1259L22.8895 22.894ZM20.5315 23.0509L20.301 23.8087L20.302 23.809L20.5315 23.0509ZM19.8332 21.7461L20.6249 21.7712L20.6249 21.7712L19.8332 21.7461ZM19.8907 19.9297L20.6824 19.9548L20.6824 19.9542L19.8907 19.9297ZM19.2829 17.5695L18.4947 17.4917L18.4647 17.795L18.6459 18.0402L19.2829 17.5695ZM19.2829 16.8129L20.0625 16.6728L19.9841 16.2364L19.5712 16.0751L19.2829 16.8129ZM18.2376 16.4044L18.5259 15.6666L18.5248 15.6662L18.2376 16.4044ZM17.6277 15.6779L18.4039 15.8357L18.404 15.8352L17.6277 15.6779ZM19.9371 12.2235L19.1547 12.0995L19.1547 12.0998L19.9371 12.2235ZM21.4221 8.57783L22.0759 9.02504L22.201 8.84221L22.2131 8.62103L21.4221 8.57783ZM21.5216 6.75714L22.3125 6.80034L22.3125 6.7998L21.5216 6.75714ZM25.2895 0.461038L25.7631 -0.173977L25.7564 -0.178878L25.2895 0.461038ZM25.3713 0.751231L24.6232 0.490914L24.6222 0.493943L25.3713 0.751231ZM24.6929 2.72669L23.9437 2.4694L23.9237 2.52781L23.9129 2.58861L24.6929 2.72669ZM24.9647 6.90331L24.185 7.04328L24.3732 8.09153L25.323 7.60972L24.9647 6.90331ZM32.8829 7.15696L32.4176 7.79801L32.4179 7.79824L32.8829 7.15696ZM6.69733 20.7251L5.99403 21.0895L7.47949 20.6L6.69733 20.7251ZM6.07413 16.9805L6.86605 16.9972L6.89469 15.6367L5.69756 16.2837L6.07413 16.9805ZM4.60673 17.6598L4.30232 16.9285L3.2623 17.3614L4.02158 18.1937L4.60673 17.6598ZM36.695 11.9656L37.3825 12.359L38.4455 10.5018L37.758 10.1083L37.0705 9.71486L36.0076 11.5721L36.695 11.9656ZM37.758 10.1083L38.4455 10.5018C39.1709 9.23442 40.2746 8.34528 41.6131 7.70626L41.2718 6.99145L40.9305 6.27663C39.3784 7.01764 37.9938 8.10181 37.0705 9.71486L37.758 10.1083ZM41.2718 6.99145L41.6127 7.70646C42.8063 7.13749 44.0589 6.95984 45.4748 6.89714L45.4398 6.10582L45.4047 5.3145C43.9079 5.38077 42.407 5.57285 40.931 6.27643L41.2718 6.99145ZM45.4398 6.10582L45.4749 6.89714L47.992 6.78536L47.9569 5.99404L47.9217 5.20272L45.4046 5.3145L45.4398 6.10582ZM47.9569 5.99404L48.2857 6.71465L50.6879 5.61837L50.3591 4.89776L50.0302 4.17715L47.628 5.27344L47.9569 5.99404ZM50.3591 4.89776L50.6647 5.62851C54.2718 4.11972 57.9775 3.18394 61.8591 2.8495L61.7911 2.06032L61.7231 1.27115C57.671 1.62027 53.8054 2.59761 50.0534 4.16701L50.3591 4.89776ZM61.7911 2.06032L61.859 2.84951C63.5296 2.70577 65.1609 2.97463 66.8957 3.41491L67.0905 2.64716L67.2854 1.8794C65.4798 1.42116 63.6503 1.10534 61.7232 1.27114L61.7911 2.06032ZM67.0905 2.64716L66.8957 3.41492C70.047 4.21454 73.0472 5.31492 76.0935 6.56558L76.3944 5.83282L76.6952 5.10007C73.6156 3.83573 70.5385 2.70485 67.2853 1.87939L67.0905 2.64716ZM76.3944 5.83282L76.043 6.54275L77.6806 7.35314L78.0319 6.64321L78.3833 5.93329L76.7457 5.1229L76.3944 5.83282ZM78.0319 6.64321L77.639 5.95545L74.0722 7.99324L74.4651 8.68101L74.858 9.36878L78.4249 7.33098L78.0319 6.64321ZM74.4651 8.68101L74.0729 7.9928C73.3267 8.41805 72.5495 8.72302 71.6982 8.99766L71.9413 9.7515L72.1845 10.5053C73.0923 10.2125 73.9814 9.86829 74.8573 9.36922L74.4651 8.68101ZM71.9413 9.7515L71.7 8.99708C71.4257 9.08483 71.1762 9.02715 70.5672 8.92337L70.4342 9.70421L70.3011 10.485C70.7264 10.5575 71.4492 10.7406 72.1827 10.5059L71.9413 9.7515ZM70.4342 9.70421L70.5671 8.92335C68.4805 8.568 66.3863 8.34286 64.2445 8.4795L64.295 9.26999L64.3454 10.0605C66.3141 9.93488 68.2729 10.1397 70.3012 10.4851L70.4342 9.70421ZM64.295 9.26999L64.1926 8.48454L62.1639 8.74894L62.2662 9.53439L62.3686 10.3198L64.3973 10.0555L64.295 9.26999ZM62.2662 9.53439L62.164 8.74891C59.3349 9.11703 57.0093 10.2318 54.8431 11.4859C52.6378 12.7626 50.692 14.1177 48.4097 15.1618L48.7392 15.8821L49.0687 16.6024C51.4383 15.5184 53.5798 14.0478 55.6369 12.8569C57.7332 11.6432 59.845 10.6482 62.3684 10.3199L62.2662 9.53439ZM48.7392 15.8821L48.4094 15.1619C47.4307 15.61 46.2415 15.9954 45.0447 16.1886C43.8407 16.383 42.6834 16.3742 41.7385 16.0872L41.5083 16.8451L41.2781 17.603C42.5343 17.9845 43.9548 17.9693 45.2972 17.7526C46.6469 17.5347 47.9725 17.1043 49.0689 16.6023L48.7392 15.8821ZM41.5083 16.8451L41.0528 17.4931C42.2398 18.3275 43.8102 18.4768 45.2642 18.3225C46.7378 18.1662 48.2292 17.6849 49.3819 17.0972L49.0221 16.3915L48.6623 15.6859C47.6691 16.1923 46.3639 16.6128 45.0971 16.7472C43.8107 16.8836 42.6972 16.7126 41.9638 16.1971L41.5083 16.8451ZM49.0221 16.3915L49.3818 17.0972C50.7558 16.3968 52.1688 15.4636 53.4513 14.6267C54.7638 13.7702 55.9148 13.0322 56.8457 12.6365L56.5359 11.9075L56.226 11.1786C55.1392 11.6405 53.8615 12.4674 52.5856 13.3C51.2798 14.1521 49.9447 15.0321 48.6623 15.6859L49.0221 16.3915ZM56.5359 11.9075L56.8439 12.6373C57.0241 12.5612 57.2687 12.5772 57.4971 12.7601L57.9922 12.1418L58.4873 11.5235C57.8406 11.0057 56.9846 10.8583 56.2278 11.1778L56.5359 11.9075ZM57.9922 12.1418L57.497 12.76C60.4427 15.1196 63.05 17.9035 65.3245 21.071L65.9679 20.609L66.6113 20.147C64.2582 16.87 61.5528 13.9791 58.4874 11.5236L57.9922 12.1418ZM65.9679 20.609L65.9431 19.8173L63.9541 19.8796L63.9789 20.6713L64.0037 21.463L65.9927 21.4007L65.9679 20.609ZM63.9789 20.6713L63.9516 19.8797C63.5402 19.8939 62.9224 20.0092 62.4606 20.5164L63.0463 21.0497L63.6321 21.5829C63.683 21.527 63.7945 21.4703 64.0062 21.463L63.9789 20.6713ZM63.0463 21.0497L63.2398 21.8178C64.2985 21.5511 65.339 21.5392 66.2966 21.9429L66.6043 21.213L66.9121 20.4832C65.5448 19.9067 64.1323 19.9593 62.8528 20.2816L63.0463 21.0497ZM66.6043 21.213L66.2969 21.943C67.2366 22.3387 67.9471 23.1928 68.3787 24.3167C68.8101 25.4401 68.9317 26.7622 68.7415 27.9492L69.5237 28.0745L70.3058 28.1997C70.5378 26.7514 70.3941 25.1458 69.8576 23.7488C69.3213 22.3523 68.3611 21.0933 66.9118 20.483L66.6043 21.213ZM69.5237 28.0745L68.7416 27.9486C68.4098 30.0104 67.0168 31.7489 65.1872 32.5939L65.5193 33.313L65.8513 34.0321C68.1366 32.9768 69.8861 30.8074 70.3057 28.2003L69.5237 28.0745ZM65.5193 33.313L65.1877 32.5936C64.4853 32.9174 63.9791 33.3194 63.6131 33.8075C63.2529 34.288 63.0649 34.8044 62.9294 35.289C62.6476 36.2964 62.5674 37.1323 61.9395 38.1356L62.611 38.5558L63.2824 38.976C64.0711 37.7158 64.2396 36.4859 64.455 35.7157C64.5681 35.3114 64.6909 35.011 64.8806 34.7579C65.0646 34.5125 65.3477 34.2642 65.8508 34.0323L65.5193 33.313ZM62.611 38.5558L61.9397 38.1354C60.7501 40.0348 59.1595 41.4912 57.3102 42.7865L57.7646 43.4353L58.219 44.0841C60.1752 42.714 61.9437 41.1137 63.2823 38.9762L62.611 38.5558ZM57.7646 43.4353L57.3104 42.7864C56.7944 43.1476 56.1091 43.6665 55.6302 44.2521C55.1847 44.7968 54.6675 45.7318 55.2705 46.6707L55.937 46.2427L56.6034 45.8146C56.6032 45.8142 56.4915 45.7013 56.8565 45.255C57.188 44.8496 57.7182 44.4346 58.2188 44.0843L57.7646 43.4353ZM55.937 46.2427L55.2711 46.6717C55.5742 47.1421 56.0532 47.3447 56.4598 47.4466C56.8642 47.5479 57.3339 47.582 57.7694 47.6093C58.6938 47.6673 59.6483 47.7069 60.568 48.0474L60.843 47.3046L61.1181 46.5617C59.9361 46.1241 58.7271 46.082 57.8686 46.0282C57.4127 45.9996 57.0862 45.9703 56.8447 45.9099C56.6056 45.85 56.5892 45.7925 56.6028 45.8136L55.937 46.2427ZM60.843 47.3046L60.568 48.0474C61.7321 48.4784 62.6863 49.1964 63.7324 49.9938C64.7511 50.7703 65.8682 51.6318 67.2526 52.1408L67.5259 51.3974L67.7992 50.6539C66.6753 50.2407 65.7427 49.5342 64.6928 48.7339C63.6704 47.9546 62.5374 47.0873 61.1181 46.5618L60.843 47.3046ZM67.5259 51.3974L67.2532 52.141C68.0899 52.4479 68.6776 52.907 69.3335 53.3845C69.962 53.842 70.7083 54.3611 71.7198 54.4296L71.7734 53.6394L71.8269 52.8491C71.3158 52.8144 70.8997 52.5651 70.2658 52.1037C69.6593 51.6622 68.8845 51.0519 67.7986 50.6537L67.5259 51.3974ZM71.7734 53.6394L71.7192 54.4296L74.57 54.6252L74.6242 53.835L74.6784 53.0447L71.8276 52.8491L71.7734 53.6394ZM74.6242 53.835L74.5701 54.6252C75.2012 54.6684 75.8721 54.8056 76.3859 55.0514C76.9029 55.2988 77.1346 55.588 77.1876 55.8909L77.9678 55.7545L78.7481 55.6182C78.5712 54.6056 77.8217 53.9822 77.0697 53.6224C76.3144 53.261 75.4284 53.0961 74.6783 53.0447L74.6242 53.835ZM77.9678 55.7545L77.1877 55.8919C77.2405 56.1916 77.1248 56.5632 76.7598 56.9498L77.3358 57.4935L77.9118 58.0372C78.4883 57.4265 78.9162 56.5729 78.7479 55.6172L77.9678 55.7545ZM77.3358 57.4935L76.7594 56.9503C76.0343 57.7195 75.1661 58.2039 74.2035 58.792C73.2773 59.3579 72.2643 60.0223 71.5751 61.1348L72.2485 61.5519L72.9219 61.9691C73.3952 61.205 74.1103 60.7054 75.0294 60.1439C75.9122 59.6045 77.0063 58.998 77.9122 58.0368L77.3358 57.4935ZM72.2485 61.5519L71.575 61.135L70.0435 63.6092L70.717 64.0261L71.3905 64.443L72.922 61.9688L72.2485 61.5519ZM70.717 64.0261L70.0437 63.6088C69.9076 63.8286 69.7693 64.0291 69.6242 64.1762C69.4744 64.328 69.3911 64.3477 69.3731 64.3496L69.4552 65.1374L69.5373 65.9253C70.0761 65.8691 70.4812 65.5632 70.7519 65.2888C71.0272 65.0098 71.2414 64.6836 71.3903 64.4434L70.717 64.0261ZM69.4552 65.1374L69.3738 64.3495L64.7108 64.831L64.7922 65.6189L64.8736 66.4069L69.5365 65.9253L69.4552 65.1374ZM64.7922 65.6189L64.7105 64.8311C63.674 64.9386 62.7139 64.6727 62.1001 63.9997L61.5149 64.5334L60.9296 65.0671C61.9821 66.2213 63.506 66.5487 64.8739 66.4068L64.7922 65.6189ZM61.5149 64.5334L62.0996 63.9991C61.2806 63.1029 60.2872 62.3897 58.9235 62.2312L58.832 63.018L58.7405 63.8048C59.5955 63.9042 60.264 64.3388 60.9301 65.0677L61.5149 64.5334ZM58.832 63.018L58.9246 62.2313C58.7833 62.2146 58.7014 62.1644 58.6646 62.1275C58.6473 62.1102 58.6347 62.0912 58.6254 62.0672C58.6161 62.043 58.6051 62.0001 58.6072 61.9303L57.8154 61.9066L57.0237 61.883C57.0075 62.423 57.1958 62.8986 57.5435 63.2468C57.8786 63.5824 58.315 63.7546 58.7393 63.8046L58.832 63.018ZM57.8154 61.9066L58.6072 61.9294C58.6128 61.7334 58.6214 61.5856 58.6481 61.4649C58.6746 61.3454 58.7014 61.3381 58.6793 61.3579L58.1513 60.7673L57.6234 60.1768C57.3007 60.4653 57.165 60.8353 57.1015 61.122C57.0382 61.4076 57.0291 61.695 57.0236 61.8839L57.8154 61.9066ZM58.1513 60.7673L58.6768 61.36C58.5857 61.4408 58.558 61.376 58.8652 61.3935C59.1348 61.4088 59.4876 61.474 59.9584 61.5678C60.8505 61.7455 62.0726 62.0087 63.3104 61.9275L63.2585 61.1371L63.2066 60.3467C62.2168 60.4116 61.2101 60.2019 60.268 60.0142C59.8216 59.9252 59.356 59.8346 58.9552 59.8118C58.5919 59.7911 58.0418 59.8058 57.6258 60.1747L58.1513 60.7673ZM63.2585 61.1371L63.3103 61.9275C64.3948 61.8564 65.2785 61.3531 65.9845 60.674L65.4353 60.1031L64.8861 59.5323C64.3765 60.0226 63.8282 60.306 63.2067 60.3467L63.2585 61.1371ZM65.4353 60.1031L65.9847 60.6737C66.4284 60.2465 67.0057 59.6545 67.4458 59.0432C67.6654 58.7382 67.8715 58.4003 68.0048 58.0533C68.1348 57.7149 68.2281 57.2829 68.1018 56.8414L67.3402 57.0593L66.5787 57.2773C66.5717 57.2528 66.5951 57.3052 66.526 57.4851C66.4602 57.6564 66.338 57.8705 66.1601 58.1176C65.8052 58.6107 65.3107 59.1236 64.8859 59.5325L65.4353 60.1031ZM67.3402 57.0593L68.1015 56.8405C67.9235 56.2215 67.3166 55.8083 66.7179 55.7319L66.6176 56.5176L66.5173 57.3034C66.5312 57.3051 66.5465 57.3092 66.5622 57.3158C66.5781 57.3224 66.5914 57.3305 66.6009 57.3379C66.6107 57.3455 66.6122 57.3488 66.6084 57.3436C66.605 57.339 66.5905 57.3181 66.579 57.2782L67.3402 57.0593ZM66.6176 56.5176L66.7175 55.7319C64.8363 55.4927 63.0677 55.0456 61.267 54.3948L60.9977 55.1398L60.7285 55.8847C62.6272 56.5709 64.5094 57.0481 66.5177 57.3034L66.6176 56.5176ZM60.9977 55.1398L61.2131 54.3775L58.9987 53.752L58.7834 54.5142L58.568 55.2765L60.7824 55.902L60.9977 55.1398ZM58.7834 54.5142L58.9986 53.7519C57.1679 53.235 55.4494 52.6155 53.7792 51.7184L53.4044 52.4163L53.0296 53.1141C54.8334 54.0828 56.6684 54.7401 58.5681 55.2765L58.7834 54.5142ZM53.4044 52.4163L53.7789 51.7183C52.5238 51.0448 51.4067 50.8618 50.5455 50.6922C49.6666 50.5191 49.1259 50.3693 48.6596 49.9119L48.1049 50.4773L47.5503 51.0428C48.3856 51.8622 49.3609 52.0735 50.2395 52.2465C51.1358 52.423 52.0175 52.571 53.0299 53.1142L53.4044 52.4163ZM48.1049 50.4773L48.6602 49.9124C48.3609 49.6183 48.1986 49.1135 48.2337 48.3903C48.2681 47.6801 48.4906 46.8875 48.7939 46.2021L48.0696 45.8815L47.3452 45.561C46.9855 46.3739 46.6976 47.36 46.6513 48.3136C46.6057 49.2542 46.7926 50.2981 47.5497 51.0423L48.1049 50.4773ZM48.0696 45.8815L48.7938 46.2023L50.6789 41.9462L49.9547 41.6254L49.2304 41.3046L47.3453 45.5608L48.0696 45.8815ZM49.9547 41.6254L50.6789 41.9462C52.0747 38.7946 53.6416 35.8135 55.5166 32.9517L54.8541 32.5176L54.1915 32.0835C52.2611 35.0299 50.6545 38.0892 49.2304 41.3046L49.9547 41.6254ZM54.8541 32.5176L55.5168 32.9515C56.5906 31.3115 57.8025 29.931 59.0893 28.3141L58.4696 27.8208L57.8498 27.3276C56.6217 28.8706 55.3187 30.3619 54.1914 32.0838L54.8541 32.5176ZM58.4696 27.8208L58.0042 27.1798C56.6937 28.1312 55.3757 29.7042 54.2331 31.3346C53.0804 32.9794 52.062 34.7469 51.3613 36.1462L52.0696 36.5008L52.7778 36.8554C53.4474 35.5183 54.4267 33.8186 55.5304 32.2438C56.6441 30.6547 57.841 29.2559 58.9349 28.4618L58.4696 27.8208ZM52.0696 36.5008L51.3613 36.1461L49.3591 40.1443L50.0674 40.499L50.7756 40.8537L52.7778 36.8555L52.0696 36.5008ZM50.0674 40.499L49.6183 39.8465L44.1376 43.619L44.5867 44.2715L45.0358 44.924L50.5165 41.1515L50.0674 40.499ZM44.5867 44.2715L44.1374 43.6192C42.8158 44.5296 42.4363 45.735 42.2376 46.9019C42.033 48.1037 42.0106 49.1272 41.5392 50.2615L42.2707 50.5655L43.0022 50.8694C43.5651 49.5145 43.6366 48.124 43.7994 47.1677C43.9681 46.1764 44.2295 45.4794 45.0361 44.9238L44.5867 44.2715ZM42.2707 50.5655L41.5393 50.2615C40.8891 51.8258 39.8231 53.1342 38.4678 54.1489L38.9425 54.7829L39.4173 55.417C40.9791 54.2477 42.2336 52.7186 43.0021 50.8695L42.2707 50.5655ZM38.9425 54.7829L38.4679 54.1488L36.3972 55.6986L36.8718 56.3328L37.3465 56.9669L39.4172 55.4171L38.9425 54.7829ZM36.8718 56.3328L36.397 55.6988C34.4347 57.1685 33.7907 59.3698 34.4386 61.6739L35.2011 61.4595L35.9636 61.2451C35.48 59.5252 35.9454 58.0163 37.3467 56.9668L36.8718 56.3328ZM35.2011 61.4595L34.4387 61.6745C34.5999 62.2459 34.1774 62.8537 33.5261 62.9853L33.6829 63.7617L33.8397 64.5381C35.1464 64.2742 36.4388 62.9302 35.9635 61.2445L35.2011 61.4595ZM33.6829 63.7617L33.5265 62.9852C32.7341 63.1448 31.8776 62.9472 30.6864 62.6601C29.5492 62.386 28.1844 62.058 26.627 62.1967L26.6973 62.9857L26.7675 63.7747C28.0344 63.6619 29.1646 63.9229 30.3153 64.2002C31.4119 64.4645 32.6361 64.7806 33.8393 64.5382L33.6829 63.7617ZM26.6973 62.9857L26.6264 62.1968C26.3475 62.2219 26.0666 62.2533 25.7976 62.2831C25.5252 62.3132 25.2636 62.3417 25.0074 62.3631C24.4909 62.4063 24.0361 62.417 23.6379 62.3626C23.2462 62.3092 22.9382 62.1965 22.6917 62.013C22.4496 61.8327 22.2141 61.545 22.0284 61.053L21.2873 61.3327L20.5463 61.6124C20.8214 62.3413 21.2234 62.8949 21.7457 63.2837C22.2637 63.6693 22.847 63.8536 23.4235 63.9323C23.9935 64.0101 24.5839 63.9883 25.1396 63.9418C25.4195 63.9183 25.7007 63.8876 25.9716 63.8577C26.2459 63.8274 26.5089 63.7979 26.7682 63.7746L26.6973 62.9857ZM21.2873 61.3327L22.0286 61.0534C21.8464 60.5699 21.5662 60.1418 21.1594 59.8318C20.7476 59.518 20.2584 59.3655 19.7317 59.3521L19.7117 60.144L19.6916 60.9358C19.9296 60.9418 20.0857 61.0053 20.1993 61.0919C20.3179 61.1823 20.4432 61.3389 20.5461 61.612L21.2873 61.3327ZM19.7117 60.144L19.7324 59.3521L18.2539 59.3134L18.2332 60.1053L18.2125 60.8971L19.6909 60.9358L19.7117 60.144ZM18.2332 60.1053L18.2556 59.3135C17.9431 59.3047 17.8704 59.2452 17.8489 59.2241L17.294 59.7893L16.7391 60.3545C17.1905 60.7977 17.7631 60.8844 18.2108 60.8971L18.2332 60.1053ZM17.294 59.7893L17.8487 59.2239C17.8224 59.1981 17.7458 59.0813 17.7458 58.7553H16.9537H16.1616C16.1616 59.2419 16.2617 59.8861 16.7392 60.3547L17.294 59.7893ZM16.9537 58.7553H17.7458C17.7458 58.4339 17.857 58.2313 17.9826 58.1157C18.1081 58 18.3085 57.9153 18.5962 57.9425L18.6708 57.1539L18.7454 56.3653C18.0563 56.3001 17.398 56.5002 16.9093 56.9504C16.4204 57.4007 16.1616 58.045 16.1616 58.7553H16.9537ZM18.6708 57.1539L18.5963 57.9425C19.5664 58.0341 20.4928 58.2721 21.4978 58.5602L21.7161 57.7988L21.9344 57.0374C20.9151 56.7451 19.8702 56.4715 18.7452 56.3653L18.6708 57.1539ZM21.7161 57.7988L21.4979 58.5602C23.1124 59.0229 24.5635 59.1265 25.955 58.7809C27.3441 58.4359 28.5949 57.663 29.843 56.5078L29.305 55.9265L28.767 55.3452C27.646 56.3826 26.625 56.9822 25.5732 57.2434C24.5239 57.504 23.365 57.4474 21.9343 57.0373L21.7161 57.7988ZM29.305 55.9265L29.8433 56.5076C31.4696 55.001 32.6287 53.2076 33.5449 51.2519L32.8276 50.9159L32.1104 50.5798C31.2542 52.4073 30.2033 54.0146 28.7667 55.3454L29.305 55.9265ZM32.8276 50.9159L33.5449 51.252C34.1251 50.0141 34.7525 48.9953 35.6356 47.9788L35.0376 47.4593L34.4396 46.9399C33.4442 48.0858 32.7412 49.2338 32.1104 50.5797L32.8276 50.9159ZM35.0376 47.4593L35.6356 47.9788C36.928 46.4909 37.6943 44.6659 37.7433 42.6311L36.9514 42.612L36.1595 42.593C36.12 44.234 35.5073 45.7107 34.4396 46.9399L35.0376 47.4593ZM36.9514 42.612L37.7432 42.6314C37.7755 41.3141 38.3096 40.285 39.3615 39.7201L38.9867 39.0223L38.612 38.3244C36.9501 39.2169 36.2024 40.8404 36.1595 42.5927L36.9514 42.612ZM38.9867 39.0223L39.3612 39.7202C40.7428 38.979 41.5128 37.9805 42.1537 36.9888C42.8068 35.978 43.2787 35.0724 44.1327 34.1972L43.5657 33.644L42.9988 33.0908C41.9986 34.1159 41.3909 35.2502 40.8231 36.1289C40.243 37.0266 39.6506 37.7672 38.6123 38.3243L38.9867 39.0223ZM43.5657 33.644L44.1324 34.1975C45.0164 33.2924 46.0728 32.6584 47.1361 32.0329C48.1487 31.4372 49.2604 30.8039 49.9786 29.9227L49.3646 29.4223L48.7506 28.9218C48.2512 29.5346 47.4313 30.0212 46.3329 30.6674C45.2851 31.2838 44.0509 32.0137 42.9991 33.0905L43.5657 33.644ZM49.3646 29.4223L49.9784 29.9229C50.7899 28.928 51.2436 27.5324 50.6475 26.1669L49.9215 26.4838L49.1956 26.8007C49.4834 27.46 49.3139 28.2312 48.7508 28.9216L49.3646 29.4223ZM49.9215 26.4838L50.6473 26.1665C50.239 25.2326 49.5091 24.6197 48.8625 24.1391L48.39 24.7749L47.9175 25.4106C48.5262 25.863 48.9631 26.269 49.1957 26.8011L49.9215 26.4838ZM48.39 24.7749L49.1379 25.036C49.1098 25.1163 49.0506 25.1369 49.1227 25.0923C49.1744 25.0604 49.203 25.0471 49.304 24.99C49.3828 24.9454 49.5009 24.876 49.6161 24.779L49.106 24.173L48.596 23.567C48.5963 23.5667 48.5823 23.5781 48.524 23.6112C48.4878 23.6316 48.3741 23.6927 48.2905 23.7443C48.0919 23.8669 47.7896 24.0917 47.6422 24.5138L48.39 24.7749ZM49.106 24.173L49.6175 24.7778C50.5213 24.0136 51.2117 23.1402 51.8797 22.2104L51.2364 21.7483L50.5931 21.2861C49.9484 22.1834 49.3482 22.9309 48.5946 23.5681L49.106 24.173ZM51.2364 21.7483L51.8791 22.2113C52.6654 21.12 53.933 20.693 54.9393 21.237L55.316 20.5402L55.6926 19.8434C53.7642 18.801 51.6815 19.7756 50.5938 21.2852L51.2364 21.7483ZM55.316 20.5402L54.939 21.2368C55.7388 21.6697 56.1457 22.7836 55.853 23.7166L56.6088 23.9537L57.3646 24.1909C57.8542 22.6304 57.2445 20.6833 55.693 19.8436L55.316 20.5402ZM56.6088 23.9537L55.8533 23.7157C55.636 24.4054 54.9858 24.6158 54.5604 24.3882L54.1867 25.0866L53.813 25.785C55.2837 26.5719 56.9098 25.6344 57.3643 24.1918L56.6088 23.9537ZM54.1867 25.0866L54.56 24.3879C54.2759 24.2362 54.0731 23.7551 54.1798 23.345L53.4132 23.1455L52.6466 22.946C52.3954 23.9116 52.7538 25.219 53.8134 25.7852L54.1867 25.0866ZM53.4132 23.1455L54.1791 23.3478C54.2499 23.0795 54.3871 22.952 54.6221 22.8755L54.3768 22.1223L54.1314 21.3692C53.4161 21.6022 52.8638 22.1238 52.6474 22.9432L53.4132 23.1455ZM54.3768 22.1223L54.6128 21.3662C54.0804 21.1999 53.5791 21.3285 53.2011 21.5774C52.8362 21.8176 52.5683 22.1764 52.4163 22.551L53.1502 22.8489L53.8842 23.1467C53.9311 23.0312 54.0079 22.9429 54.0723 22.9005C54.1012 22.8815 54.1189 22.8771 54.124 22.8762C54.1264 22.8758 54.1295 22.8749 54.1407 22.8784L54.3768 22.1223ZM53.1502 22.8489L52.4174 22.5483C51.9472 23.6948 52.3658 24.8382 53.0834 25.5779L53.6519 25.0264L54.2204 24.4748C53.8286 24.0709 53.708 23.5764 53.8831 23.1494L53.1502 22.8489ZM53.6519 25.0264L53.084 25.5786C53.7993 26.3142 55.022 26.6363 56.0898 26.1633L55.769 25.4391L55.4482 24.7149C55.0309 24.8997 54.5078 24.7703 54.2198 24.4742L53.6519 25.0264ZM55.769 25.4391L56.0897 26.1634C57.8048 25.404 58.2273 23.4676 57.7614 21.9538L57.0044 22.1868L56.2473 22.4198C56.5594 23.4339 56.1995 24.3822 55.4483 24.7148L55.769 25.4391ZM57.0044 22.1868L57.7616 21.9545C57.0761 19.7195 54.9504 18.4962 52.7103 19.1975L52.9469 19.9534L53.1836 20.7093C54.528 20.2885 55.8012 20.9654 56.2471 22.4191L57.0044 22.1868ZM52.9469 19.9534L52.7097 19.1976C51.5075 19.575 50.6742 20.4473 49.9829 21.234L50.5779 21.7569L51.1729 22.2798C51.8606 21.4972 52.4416 20.9422 53.1842 20.7091L52.9469 19.9534ZM50.5779 21.7569L49.9825 21.2344L49.0035 22.35L49.5989 22.8725L50.1942 23.395L51.1732 22.2793L50.5779 21.7569ZM49.5989 22.8725L49.0032 22.3504C48.3318 23.1163 47.4357 23.4672 46.3732 23.5194L46.4121 24.3106L46.451 25.1017C47.8371 25.0336 49.1775 24.5547 50.1945 23.3946L49.5989 22.8725ZM46.4121 24.3106L46.3745 23.5194C44.8019 23.5941 43.2709 23.4818 41.7406 23.3732C40.2292 23.2659 38.7048 23.1608 37.2353 23.2781L37.2983 24.0677L37.3614 24.8573C38.6919 24.751 40.0967 24.8447 41.6284 24.9534C43.1413 25.0608 44.7672 25.1818 46.4497 25.1018L46.4121 24.3106ZM37.2983 24.0677L37.2375 23.2779C36.801 23.3115 36.4469 23.5157 36.1916 23.7082L36.6685 24.3407L37.1454 24.9731C37.2835 24.869 37.3493 24.8582 37.3592 24.8574L37.2983 24.0677ZM36.6685 24.3407L36.1954 23.7054L30.896 27.652L31.3691 28.2873L31.8422 28.9226L37.1416 24.9759L36.6685 24.3407ZM31.3691 28.2873L30.8963 27.6517C29.9459 28.3587 28.9458 28.7589 27.7622 29.176L28.0254 29.9231L28.2887 30.6702C29.4962 30.2447 30.6884 29.7807 31.8418 28.9228L31.3691 28.2873ZM28.0254 29.9231L27.7624 29.176C27.3931 29.306 27.0736 29.5734 26.8379 29.7848C26.7102 29.8994 26.5783 30.0251 26.4537 30.1429C26.3257 30.264 26.2003 30.3819 26.0706 30.4964C25.5381 30.9669 25.0428 31.2786 24.484 31.3028L24.5183 32.0942L24.5526 32.8855C25.6799 32.8367 26.5261 32.2079 27.1195 31.6837C27.2713 31.5496 27.4139 31.4153 27.5425 31.2937C27.6745 31.1688 27.7877 31.061 27.8957 30.9641C28.1314 30.7527 28.2456 30.6854 28.2885 30.6703L28.0254 29.9231ZM24.5183 32.0942L24.4832 31.3029C24.3067 31.3107 24.0838 31.2161 23.6529 30.9399C23.4711 30.8233 23.2315 30.6625 22.9977 30.5366C22.7589 30.4079 22.4555 30.2746 22.1082 30.2381L22.0255 31.0258L21.9427 31.8136C21.9943 31.819 22.0867 31.8453 22.2462 31.9312C22.4106 32.0198 22.5716 32.1285 22.798 32.2736C23.1837 32.5208 23.8083 32.9185 24.5533 32.8855L24.5183 32.0942ZM22.0255 31.0258L22.1078 30.238L20.4018 30.0596L20.3194 30.8474L20.237 31.6352L21.9431 31.8136L22.0255 31.0258ZM20.3194 30.8474L20.4016 30.0596C18.8865 29.9015 17.5344 29.5126 16.2321 28.7478L15.831 29.4309L15.4299 30.1139C16.9608 31.0129 18.539 31.458 20.2372 31.6352L20.3194 30.8474ZM15.831 29.4309L16.2318 28.7476L12.4285 26.5164L12.0277 27.1996L11.6269 27.8828L15.4302 30.1141L15.831 29.4309ZM12.0277 27.1996L12.4286 26.5164C10.2568 25.2421 7.98144 25.1976 6.00794 25.2655C4.99334 25.3004 4.10277 25.3627 3.25083 25.3383C2.41224 25.3143 1.70506 25.2055 1.10536 24.9389L0.783533 25.6626L0.461703 26.3864C1.33162 26.7732 2.27388 26.8952 3.20552 26.9219C4.12381 26.9482 5.12426 26.881 6.06241 26.8487C7.99443 26.7823 9.8715 26.8528 11.6268 27.8828L12.0277 27.1996ZM0.783533 25.6626L1.10583 24.9391C1.13013 24.9499 1.14658 24.965 1.15871 24.9835C1.17095 25.0021 1.19125 25.0445 1.18776 25.1096L0.396794 25.0672L-0.394168 25.0248C-0.427141 25.6395 -0.0370074 26.1643 0.461233 26.3862L0.783533 25.6626ZM0.396794 25.0672L1.1876 25.1124C1.18091 25.2295 1.14063 25.3052 1.12363 25.333C1.11364 25.3493 1.10525 25.3598 1.10063 25.3652C1.09588 25.3707 1.09306 25.3732 1.09278 25.3734C1.09243 25.3737 1.09326 25.373 1.09514 25.3717C1.097 25.3704 1.09876 25.3694 1.09996 25.3687C1.10421 25.3665 1.09728 25.3711 1.07615 25.3756L0.91171 24.6008L0.747271 23.8259C0.472731 23.8842 0.225743 24.0249 0.0416926 24.1881C-0.120161 24.3317 -0.370873 24.6168 -0.394017 25.022L0.396794 25.0672ZM0.91171 24.6008L1.07484 25.3759C2.1298 25.1538 3.38006 24.98 4.54211 24.6174L4.30618 23.8613L4.07024 23.1052C3.00025 23.439 1.96102 23.5705 0.748575 23.8256L0.91171 24.6008ZM4.30618 23.8613L4.54008 24.6181C4.90177 24.5063 5.24213 24.3026 5.48244 23.9641C5.72063 23.6286 5.80421 23.2399 5.80101 22.8594L5.00894 22.8661L4.21686 22.8727C4.21747 22.945 4.20962 22.9905 4.20275 23.0159C4.19938 23.0284 4.19621 23.0362 4.19425 23.0405C4.19234 23.0446 4.19106 23.0465 4.19068 23.047C4.19031 23.0475 4.18968 23.0484 4.18813 23.0499C4.1865 23.0514 4.1827 23.0548 4.17546 23.0597C4.1608 23.0695 4.12958 23.0868 4.07227 23.1045L4.30618 23.8613ZM5.00894 22.8661L5.80101 22.8592C5.78495 21.0004 4.52665 19.3448 3.49688 18.197L2.90728 18.726L2.31769 19.2549C3.34758 20.4029 4.20641 21.6621 4.21687 22.8729L5.00894 22.8661ZM2.90728 18.726L3.49702 18.1972C3.21326 17.8807 2.86301 17.6535 2.43029 17.6066C2.03125 17.5634 1.68196 17.6899 1.43533 17.7988C0.856555 18.0544 0.569289 18.2896 -0.0180171 18.4218L0.155911 19.1946L0.329839 19.9673C1.10827 19.7921 1.81217 19.3642 2.07537 19.2479C2.24975 19.1709 2.28415 19.1843 2.2597 19.1816C2.20156 19.1753 2.21678 19.1424 2.31755 19.2548L2.90728 18.726ZM0.155911 19.1946L-0.0165193 18.4215C0.212156 18.3705 0.479736 18.4439 0.653545 18.647C0.778421 18.7928 0.790035 18.9311 0.790957 18.94C0.794817 18.9772 0.785025 18.9217 0.837792 18.7739C0.934606 18.5028 1.17148 18.1233 1.59633 17.8381L1.1548 17.1804L0.713275 16.5228C-0.0176683 17.0136 -0.453725 17.6799 -0.654147 18.2412C-0.749998 18.5096 -0.814486 18.8169 -0.784797 19.1033C-0.770961 19.2368 -0.726302 19.4711 -0.549924 19.6772C-0.324613 19.9404 0.0129254 20.038 0.328341 19.9677L0.155911 19.1946ZM1.1548 17.1804L1.59579 17.8384C2.12897 17.4811 2.57679 17.2469 2.9346 17.1792C3.09906 17.1481 3.21353 17.1588 3.29743 17.1864C3.3761 17.2123 3.47771 17.2692 3.59592 17.4149L4.21115 16.916L4.82638 16.4171C4.54017 16.0642 4.19343 15.8136 3.7931 15.6818C3.39799 15.5516 3.0028 15.5541 2.64019 15.6226C1.94386 15.7543 1.26793 16.1511 0.713815 16.5224L1.1548 17.1804ZM4.21115 16.916L4.89419 17.3171C5.22276 16.7576 5.60521 16.2197 5.98781 15.8861C6.38076 15.5434 6.56406 15.5782 6.66077 15.6241L7.00009 14.9083L7.33941 14.1926C6.38419 13.7397 5.51445 14.1969 4.94663 14.6921C4.36847 15.1962 3.88241 15.9116 3.5281 16.5149L4.21115 16.916ZM7.00009 14.9083L6.6601 15.6237C7.08726 15.8268 7.32792 16.2307 7.72041 17.0962C8.0875 17.9057 8.54744 18.9996 9.52181 20.0175L10.094 19.4697L10.6662 18.922C9.90798 18.1299 9.54692 17.2881 9.16319 16.4419C8.80486 15.6517 8.36485 14.6799 7.34009 14.1929L7.00009 14.9083ZM10.094 19.4697L9.52076 20.0164C9.50432 19.9991 9.50221 19.9924 9.5104 20.0061C9.51784 20.0186 9.52889 20.0398 9.54214 20.0707C9.56924 20.134 9.59318 20.2089 9.61141 20.2774L10.3769 20.0738L11.1423 19.8701C11.112 19.7559 11.0652 19.6029 10.9984 19.4469C10.9362 19.3019 10.833 19.0969 10.6672 18.9231L10.094 19.4697ZM10.3769 20.0738L9.61289 20.2829L10.119 22.1315L10.883 21.9224L11.6469 21.7132L11.1409 19.8646L10.3769 20.0738ZM10.883 21.9224L10.1191 22.132C10.3646 23.0267 10.9749 23.6537 11.8347 23.9263L12.0741 23.1713L12.3135 22.4162C11.9667 22.3063 11.7505 22.0906 11.6468 21.7128L10.883 21.9224ZM12.0741 23.1713L11.8353 23.9265C13.948 24.5945 16.0696 24.9172 18.2056 25.1661L18.2973 24.3794L18.389 23.5926C16.2819 23.3471 14.2797 23.0379 12.3129 22.416L12.0741 23.1713ZM18.2973 24.3794L18.2057 25.1661L22.4731 25.6627L22.5647 24.8759L22.6562 24.0891L18.3888 23.5926L18.2973 24.3794ZM22.5647 24.8759L22.4732 25.6627C23.6552 25.8001 24.6029 25.6137 25.4691 25.158C26.2981 24.7219 27.0167 24.0549 27.7619 23.3311L27.21 22.7629L26.6581 22.1947C25.9005 22.9305 25.3318 23.4403 24.7316 23.756C24.1685 24.0522 23.5449 24.1924 22.6562 24.0891L22.5647 24.8759ZM27.21 22.7629L27.9097 23.1342C28.2736 22.4485 28.5325 21.8321 28.633 21.3117L27.8553 21.1614L27.0776 21.0112C27.0219 21.2991 26.8506 21.7503 26.5103 22.3916L27.21 22.7629ZM27.8553 21.1614L28.5657 21.5118L28.9303 20.7723L28.2199 20.422L27.5095 20.0717L27.1449 20.8111L27.8553 21.1614ZM28.2199 20.422L27.8431 19.7252L26.6387 20.3766L27.0155 21.0733L27.3923 21.7701L28.5967 21.1187L28.2199 20.422ZM27.0155 21.0733L26.6388 20.3765C25.2677 21.1177 24.0756 21.7805 22.6972 22.1256L22.8895 22.894L23.0819 23.6624C24.6914 23.2594 26.0672 22.4863 27.3922 21.7701L27.0155 21.0733ZM22.8895 22.894L22.6959 22.1259C21.8841 22.3307 21.2844 22.4512 20.7611 22.2928L20.5315 23.0509L20.302 23.809C21.3124 24.1149 22.3436 23.8486 23.0832 23.6621L22.8895 22.894ZM20.5315 23.0509L20.7621 22.2931C20.8035 22.3057 20.7661 22.3187 20.7074 22.1918C20.6504 22.0684 20.6207 21.9045 20.6249 21.7712L19.8332 21.7461L19.0415 21.721C19.0303 22.0757 19.0989 22.4878 19.2695 22.8567C19.4384 23.2221 19.7579 23.6435 20.301 23.8087L20.5315 23.0509ZM19.8332 21.7461L20.6249 21.7712L20.6824 19.9548L19.8907 19.9297L19.099 19.9047L19.0415 21.7211L19.8332 21.7461ZM19.8907 19.9297L20.6824 19.9542C20.7114 19.0131 20.5908 18.0067 19.92 17.0988L19.2829 17.5695L18.6459 18.0402C19.0137 18.5381 19.123 19.1267 19.0989 19.9053L19.8907 19.9297ZM19.2829 17.5695L20.0712 17.6473C20.0983 17.3724 20.1233 17.0108 20.0625 16.6728L19.2829 16.8129L18.5033 16.9529C18.5221 17.0577 18.5206 17.2293 18.4947 17.4917L19.2829 17.5695ZM19.2829 16.8129L19.5712 16.0751L18.5259 15.6666L18.2376 16.4044L17.9494 17.1422L18.9947 17.5506L19.2829 16.8129ZM18.2376 16.4044L18.5248 15.6662C18.4803 15.6489 18.4373 15.6294 18.4005 15.6088C18.3622 15.5875 18.3439 15.5724 18.3395 15.5683C18.3351 15.5642 18.3614 15.5868 18.3839 15.6419C18.3956 15.6705 18.4046 15.7042 18.4082 15.7411C18.4117 15.7781 18.409 15.8106 18.4039 15.8357L17.6277 15.6779L16.8515 15.52C16.7393 16.0715 17.0032 16.4883 17.2589 16.7268C17.4957 16.9476 17.7778 17.0755 17.9504 17.1426L18.2376 16.4044ZM17.6277 15.6779L18.404 15.8352C18.4907 15.4076 18.7215 15.2387 19.2824 14.7694C19.8449 14.2987 20.5126 13.6548 20.7194 12.3473L19.9371 12.2235L19.1547 12.0998C19.0344 12.8601 18.6999 13.1911 18.2658 13.5544C17.83 13.9191 17.0697 14.4435 16.8514 15.5205L17.6277 15.6779ZM19.9371 12.2235L20.7194 12.3475C20.9088 11.1529 21.387 10.0321 22.0759 9.02504L21.4221 8.57783L20.7684 8.13062C19.9633 9.30749 19.3852 10.6459 19.1547 12.0995L19.9371 12.2235ZM21.4221 8.57783L22.2131 8.62103L22.3125 6.80034L21.5216 6.75714L20.7307 6.71394L20.6312 8.53463L21.4221 8.57783ZM21.5216 6.75714L22.3125 6.7998C22.4116 4.96383 23.1114 3.40328 23.8594 2.37267C24.2356 1.85415 24.6017 1.50076 24.8753 1.31433C25.0149 1.21919 25.0945 1.19216 25.1125 1.18791C25.1332 1.18304 24.9889 1.22217 24.8227 1.10095L25.2895 0.461038L25.7564 -0.178878C25.4112 -0.430681 25.0216 -0.41822 24.7494 -0.354095C24.4744 -0.289345 24.2134 -0.151713 23.9831 0.00521573C23.5169 0.32293 23.0263 0.823326 22.5772 1.4422C21.6743 2.68637 20.8482 4.53505 20.7306 6.71448L21.5216 6.75714ZM25.2895 0.461038L24.816 1.09602C24.7461 1.0439 24.6741 0.963674 24.6313 0.848982C24.5835 0.720772 24.5884 0.590949 24.6232 0.490917L25.3713 0.751231L26.1194 1.01155C26.3061 0.475159 26.0417 0.0338432 25.7631 -0.173942L25.2895 0.461038ZM25.3713 0.751231L24.6222 0.493943L23.9437 2.4694L24.6929 2.72669L25.442 2.98398L26.1205 1.00852L25.3713 0.751231ZM24.6929 2.72669L23.9129 2.58861C23.6429 4.11388 23.9322 5.63516 24.185 7.04328L24.9647 6.90331L25.7443 6.76334C25.48 5.29104 25.2611 4.06086 25.4728 2.86477L24.6929 2.72669ZM24.9647 6.90331L25.323 7.60972C27.8121 6.34706 30.2622 6.2336 32.4176 7.79801L32.8829 7.15696L33.3482 6.51592C30.5754 4.50343 27.4565 4.7511 24.6063 6.19691L24.9647 6.90331ZM32.8829 7.15696L32.4179 7.79824C32.9927 8.21498 33.6259 9.05492 34.1631 10.0739C34.6934 11.0797 35.0719 12.1488 35.1993 12.9349L35.9812 12.8082L36.7631 12.6815C36.601 11.6813 36.1508 10.4471 35.5645 9.33507C34.9851 8.23617 34.2139 7.14364 33.3478 6.51568L32.8829 7.15696ZM6.69733 20.7251L7.47949 20.6C7.3645 19.8808 7.18951 19.2034 7.06699 18.6389C6.93959 18.0518 6.85476 17.5333 6.86605 16.9972L6.07413 16.9805L5.2822 16.9638C5.26697 17.6874 5.38325 18.3501 5.51883 18.9748C5.65929 19.6221 5.80916 20.1872 5.91516 20.8501L6.69733 20.7251ZM6.07413 16.9805L5.69756 16.2837C5.15947 16.5744 4.82343 16.7116 4.30232 16.9285L4.60673 17.6598L4.91114 18.3911C5.43312 18.1738 5.8352 18.01 6.4507 17.6774L6.07413 16.9805ZM4.60673 17.6598L4.02158 18.1937C4.86835 19.1218 5.45672 20.0525 5.99403 21.0895L6.69733 20.7251L7.40063 20.3607C6.81971 19.2395 6.15725 18.184 5.19188 17.1259L4.60673 17.6598Z" fill="#F73E36" mask="url(#path-1-inside-1_1154_16767)"/>
<path d="M82.8457 4.79199C83.688 4.48622 84.5873 4.47889 85.3701 4.72559C86.0339 4.93482 86.4515 5.40337 86.5752 6.12793L86.5957 6.27637C86.6091 6.39874 86.6401 6.51533 86.6689 6.6123C86.7025 6.72515 86.7258 6.79044 86.752 6.88477C86.7991 7.05492 86.8064 7.16081 86.7793 7.24805C86.7265 7.41773 86.4855 7.57853 86.2021 7.57227L84.1426 7.52637H84.1416C83.1905 7.50521 82.212 7.84682 81.6016 8.7627L80.9395 9.75684L82.0635 9.35547C82.2873 9.27568 82.5004 9.1855 82.7002 9.09961C82.9033 9.01228 83.0897 8.93122 83.2764 8.85938C83.6469 8.71678 83.9835 8.6272 84.3379 8.63867L87.0557 8.72559C87.6237 8.80581 88.2912 8.92413 88.8105 9.12598C89.0724 9.22777 89.269 9.34075 89.3945 9.45801C89.5125 9.56835 89.5528 9.66661 89.5527 9.76562V9.7666C89.5527 9.78043 89.5583 9.77116 89.5469 9.77832C89.5101 9.80174 89.4177 9.83468 89.2441 9.84375C88.9889 9.85705 88.6527 9.81436 88.292 9.72852L87.9248 9.62891C87.3634 9.45859 86.687 9.22651 86.0527 9.14746C85.4089 9.06723 84.7166 9.13138 84.167 9.63672L84.166 9.6377C83.5596 10.1982 83.0564 10.8498 82.7461 11.6768L81.5078 12.0088H81.5068C80.9971 12.1465 80.645 12.6604 80.7188 13.2002L80.7393 13.3086C80.8626 13.818 81.1677 14.2871 81.4951 14.6982C81.8217 15.1083 82.212 15.5095 82.5186 15.8477C82.846 16.2088 83.065 16.4861 83.1504 16.7031C83.1891 16.8017 83.186 16.8537 83.1797 16.8789C83.1758 16.8945 83.165 16.9258 83.1201 16.9697L83.0625 17.0176C82.771 17.233 82.337 17.1587 81.96 16.7461C81.8553 16.6315 81.7541 16.5121 81.6465 16.3857C81.5406 16.2615 81.4291 16.1303 81.3115 16.0049C81.0763 15.754 80.8003 15.5051 80.4512 15.332L80.1934 15.2041L79.9922 15.4102L78.4277 17.0117L78.418 17.0215L76.3086 19.335L70.3252 25.3398C70.0853 23.9729 69.5997 22.6937 68.8223 21.5654C69.0718 21.3852 69.3595 21.2813 69.7305 21.1045L69.7295 21.1035C70.9547 20.5215 72.4456 19.426 73.8379 18.2207C75.2347 17.0115 76.5603 15.6684 77.4551 14.5723H77.4561C77.5106 14.5053 77.5659 14.4805 77.6387 14.4746C77.727 14.4676 77.8543 14.4891 78.0234 14.5596C78.3508 14.6959 78.7201 14.964 79.0557 15.2441L79.0576 15.2471L79.0742 15.2656L79.0811 15.2715C79.085 15.2761 79.0917 15.2834 79.1016 15.2949C79.1236 15.3208 79.169 15.3745 79.2285 15.4219C79.2884 15.4695 79.3927 15.5356 79.5352 15.5459C79.6891 15.557 79.8213 15.4986 79.9209 15.417L80.0664 15.2979V15.1113C80.0664 15.0974 80.0626 15.0836 80.0615 15.0703L80.0723 15.0654L80.0596 15.0547C80.0445 14.926 79.9836 14.828 79.9287 14.7676C79.864 14.6965 79.7862 14.6461 79.7119 14.6133C79.6567 14.5889 79.5824 14.5664 79.499 14.5586L78.4512 13.4297L78.4443 13.4219L78.4365 13.415L77.9033 12.8877C77.7286 12.7076 77.5642 12.5255 77.4326 12.3486C77.3007 12.1713 77.2243 12.0286 77.1953 11.9238C77.1696 11.8308 77.1896 11.8093 77.1953 11.8018C77.4065 11.5269 77.6618 11.3129 77.9521 11.0928C78.2321 10.8805 78.569 10.6465 78.8701 10.3662L78.4355 9.7168C77.9835 9.92467 77.3943 10.1516 76.9238 10.5605H76.9229C75.0301 12.2161 72.8369 13.203 70.4062 13.5449C67.9723 13.8887 65.7151 13.4102 63.8047 11.9111L63.4277 11.5977C62.8981 11.1318 62.3996 10.7523 61.9941 10.2588L63.6572 10.1191V10.1182C65.1729 9.98903 66.6132 9.91425 67.9805 10.3066L69.7725 10.8203C70.2196 10.9489 70.7489 10.9223 71.2812 10.8213C71.8206 10.719 72.4016 10.5334 72.9717 10.3066C74.1111 9.85345 75.2487 9.22215 75.998 8.71484L78.7012 6.88574C79.9971 6.00759 81.3731 5.32916 82.8467 4.79297L82.8457 4.79199ZM79.5176 15.3281C79.4842 15.3412 79.4573 15.3479 79.4404 15.3477C79.4166 15.3473 79.4006 15.3419 79.3916 15.3379C79.3834 15.3342 79.3647 15.3248 79.3428 15.3008C79.3226 15.2786 79.2746 15.2142 79.2744 15.1113H79.4121L79.5176 15.3281Z" stroke="#F73E36" stroke-width="0.792099"/>
<path d="M82.7393 10.6343C83.4897 10.4163 84.1986 10.4474 84.8076 10.8462C85.3756 11.2174 85.7618 11.7631 85.9141 12.3677L84.0625 11.7515L83.834 11.6753L83.8242 11.6831C82.8943 11.4348 82.0726 11.5725 81.4551 11.7046C81.1031 11.7799 80.8615 11.8418 80.6611 11.8599C80.617 11.8638 80.5812 11.8636 80.5527 11.8628C80.554 11.8618 80.5554 11.8609 80.5566 11.8599C81.2172 11.3199 81.983 10.854 82.7393 10.6343Z" stroke="#F73E36" stroke-width="0.792099"/>
<path d="M26.7393 4.43457C26.7926 4.94264 26.8388 5.41342 26.8184 5.87695C26.5233 5.92661 26.2195 6.0127 25.9131 6.12109L26.583 4.62109C26.635 4.55023 26.6864 4.48788 26.7393 4.43457Z" stroke="#F73E36" stroke-width="0.792099"/>
<path d="M59.8076 0.668945C60.0873 0.9677 60.3437 1.27338 60.5889 1.61035L60.5645 1.61328V1.6123L60.123 1.66406C59.9656 1.68216 59.8617 1.63848 59.8203 1.60938C59.82 1.60846 59.8197 1.60745 59.8193 1.60645C59.8087 1.57857 59.7961 1.53365 59.7852 1.47168C59.7634 1.34803 59.7538 1.1862 59.7627 1.01465C59.769 0.893881 59.7842 0.775747 59.8076 0.668945Z" stroke="#F73E36" stroke-width="0.792099"/>
</svg>
