<svg width="27" height="27" viewBox="0 0 27 27" fill="none" xmlns="http://www.w3.org/2000/svg">
<mask id="mask0_1047_38789" style="mask-type:alpha" maskUnits="userSpaceOnUse" x="0" y="0" width="27" height="28">
<g clip-path="url(#clip0_1047_38789)">
<g clip-path="url(#clip1_1047_38789)">
<path d="M9.00107 13.5018C9.00107 11.0166 11.0153 9.00147 13.5005 9.00147C15.9858 9.00147 18.0011 11.0166 18.0011 13.5018C18.0011 15.987 15.9858 18.0022 13.5005 18.0022C11.0153 18.0022 9.00107 15.987 9.00107 13.5018ZM6.56817 13.5018C6.56817 17.3304 9.67179 20.4339 13.5005 20.4339C17.3293 20.4339 20.4329 17.3304 20.4329 13.5018C20.4329 9.67323 17.3293 6.56975 13.5005 6.56975C9.67179 6.56975 6.56817 9.67323 6.56817 13.5018ZM19.0873 6.29489C19.0871 6.61529 19.182 6.92853 19.36 7.19502C19.5379 7.46149 19.7908 7.66924 20.0868 7.79197C20.3828 7.9147 20.7085 7.94692 21.0227 7.88453C21.3371 7.82214 21.6258 7.66797 21.8524 7.44149C22.0791 7.21503 22.2335 6.92644 22.2961 6.61221C22.3589 6.29799 22.3268 5.97224 22.2043 5.67618C22.0818 5.38011 21.8742 5.12702 21.6079 4.94891C21.3416 4.77079 21.0284 4.67567 20.708 4.67553C20.2785 4.67573 19.8659 4.84639 19.5622 5.15001C19.2584 5.45364 19.0876 5.8654 19.0873 6.29489ZM8.04632 24.4905C6.73007 24.4306 6.01465 24.2114 5.53922 24.0261C4.9089 23.7807 4.45917 23.4885 3.98633 23.0163C3.51349 22.5441 3.2208 22.0949 2.9765 21.4646C2.79116 20.9894 2.5719 20.2738 2.51208 18.9575C2.44662 17.5346 2.43356 17.107 2.43356 13.5019C2.43356 9.89679 2.4477 9.47051 2.51208 8.04631C2.57202 6.73013 2.79288 6.01591 2.9765 5.53931C3.22188 4.90903 3.51413 4.45931 3.98633 3.98649C4.45853 3.51367 4.90782 3.22099 5.53922 2.97669C6.01444 2.79137 6.73007 2.57213 8.04632 2.51229C9.46939 2.44685 9.89687 2.43377 13.5005 2.43377C17.1042 2.43377 17.5321 2.44793 18.9564 2.51229C20.2726 2.57223 20.9869 2.79309 21.4635 2.97669C22.0938 3.22099 22.5435 3.51431 23.0163 3.98649C23.4892 4.45867 23.7808 4.90903 24.0263 5.53931C24.2116 6.01451 24.4308 6.73013 24.4907 8.04631C24.5562 9.47051 24.5692 9.89679 24.5692 13.5019C24.5692 17.107 24.5562 17.5334 24.4907 18.9575C24.4306 20.2738 24.2104 20.9891 24.0263 21.4646C23.7808 22.0949 23.4886 22.5446 23.0163 23.0163C22.5442 23.4881 22.0938 23.7807 21.4635 24.0261C20.9883 24.2114 20.2726 24.4308 18.9564 24.4905C17.5333 24.556 17.1059 24.569 13.5005 24.569C9.89525 24.569 9.46895 24.556 8.04632 24.4905ZM7.93454 0.0835871C6.49733 0.149035 5.51524 0.376915 4.65758 0.710635C3.76935 1.05526 3.01742 1.51761 2.26604 2.26777C1.51465 3.01795 1.05347 3.77103 0.708833 4.65923C0.375099 5.51739 0.14721 6.49889 0.0817592 7.93605C0.0152286 9.37547 0 9.83567 0 13.5018C0 17.1679 0.0152286 17.6281 0.0817592 19.0675C0.14721 20.505 0.375099 21.4862 0.708833 22.3445C1.05347 23.2321 1.51476 23.9861 2.26604 24.7359C3.01732 25.4858 3.76935 25.9475 4.65758 26.2931C5.51686 26.6267 6.49733 26.8547 7.93454 26.9202C9.37477 26.9855 9.83423 27.0018 13.5005 27.0018C17.1669 27.0018 17.6271 26.9866 19.0666 26.9202C20.5038 26.8547 21.4852 26.6267 22.3435 26.2931C23.2311 25.9475 23.9836 25.4861 24.735 24.7359C25.4865 23.9858 25.9467 23.2321 26.2923 22.3445C26.626 21.4862 26.8549 20.5048 26.9193 19.0675C26.9848 17.6271 27 17.1679 27 13.5018C27 9.83567 26.9848 9.37547 26.9193 7.93605C26.8539 6.49879 26.626 5.51685 26.2923 4.65923C25.9467 3.77157 25.4853 3.01913 24.735 2.26777C23.9848 1.51642 23.2311 1.05526 22.3445 0.710635C21.4852 0.376915 20.5038 0.147955 19.0676 0.0835871C17.6281 0.0181391 17.1679 0.00183105 13.5016 0.00183105C9.83531 0.00183105 9.37477 0.0170591 7.93454 0.0835871Z" fill="white"/>
</g>
</g>
</mask>
<g mask="url(#mask0_1047_38789)">
<rect y="0.00183105" width="27" height="27" fill="#1A1A1A"/>
</g>
<defs>
<clipPath id="clip0_1047_38789">
<rect width="27" height="27" fill="white" transform="translate(0 0.00183105)"/>
</clipPath>
<clipPath id="clip1_1047_38789">
<rect width="27" height="27" fill="white" transform="translate(0 0.00183105)"/>
</clipPath>
</defs>
</svg>
