<svg width="22" height="25" viewBox="0 0 22 25" fill="none" xmlns="http://www.w3.org/2000/svg">
<path d="M15.3866 21.9808V19.7827H19.7827V8.79232H4.39616V13.1885H2.19808V4.39616C2.19808 3.79169 2.41331 3.27422 2.84376 2.84376C3.27422 2.41331 3.79169 2.19808 4.39616 2.19808H5.4952V0H7.69328V2.19808H16.4856V0H18.6837V2.19808H19.7827C20.3872 2.19808 20.9046 2.41331 21.3351 2.84376C21.7656 3.27422 21.9808 3.79169 21.9808 4.39616V19.7827C21.9808 20.3872 21.7656 20.9046 21.3351 21.3351C20.9046 21.7656 20.3872 21.9808 19.7827 21.9808H15.3866ZM7.69328 24.1789L6.15462 22.6402L8.98465 19.7827H0V17.5846H8.98465L6.15462 14.7271L7.69328 13.1885L13.1885 18.6837L7.69328 24.1789ZM4.39616 6.59424H19.7827V4.39616H4.39616V6.59424Z" fill="#009C4C"/>
</svg>
